<svg width="39" height="38" viewBox="0 0 39 38" fill="none" xmlns="http://www.w3.org/2000/svg">
<path d="M27.4166 13.4585C28.7283 13.4585 29.7916 12.3952 29.7916 11.0835C29.7916 9.77182 28.7283 8.7085 27.4166 8.7085C26.1049 8.7085 25.0416 9.77182 25.0416 11.0835C25.0416 12.3952 26.1049 13.4585 27.4166 13.4585Z" fill="white"/>
<path d="M25.8333 4.75C30.2033 4.75 33.75 8.29667 33.75 12.6667V25.3333C33.75 29.7033 30.2033 33.25 25.8333 33.25H13.1667C8.79667 33.25 5.25 29.7033 5.25 25.3333V12.6667C5.25 8.29667 8.79667 4.75 13.1667 4.75H19.5H25.8333Z" stroke="white" stroke-width="2" stroke-linecap="round" stroke-linejoin="round"/>
<path d="M19.5 12.6665C22.9991 12.6665 25.8333 15.5007 25.8333 18.9998C25.8333 22.499 22.9991 25.3332 19.5 25.3332C16.0008 25.3332 13.1666 22.499 13.1666 18.9998C13.1666 15.5007 16.0008 12.6665 19.5 12.6665Z" stroke="white" stroke-width="2" stroke-linecap="round" stroke-linejoin="round"/>
</svg>
