<svg width="264" height="142" viewBox="0 0 264 142" fill="none" xmlns="http://www.w3.org/2000/svg">
<path d="M0.567139 85.1324V61.3035C0.567139 59.3646 2.04262 57.7443 3.97331 57.563C6.83365 57.2945 11.6796 56.8647 13.6604 56.5805C68.037 48.7719 91.8185 39.0553 127.576 39.9513C167.853 40.9599 198.58 50.0263 209.374 51.9886C220.939 54.0902 245.486 57.2856 245.486 57.2856L249.296 57.6248C251.246 57.7237 252.775 59.3365 252.768 61.2891L252.58 90.3525V90.7006L252.768 120.604C252.774 122.557 251.246 124.17 249.296 124.269L245.486 124.608C245.486 124.608 220.938 127.803 209.374 129.905C198.579 131.867 167.852 140.933 127.576 141.942C91.8191 142.838 68.0377 133.122 13.6604 125.313C11.6796 125.029 6.83365 124.599 3.97331 124.33C2.04331 124.149 0.567139 122.529 0.567139 120.59V88.4719V85.1324Z" fill="#0C7949"/>
<path d="M101.119 45.4223C100.875 44.7638 100.843 44.0656 100.739 43.3811C100.671 42.9334 100.821 42.5366 101.056 42.1651C101.211 41.9179 101.4 41.6872 101.431 41.381C101.901 40.8194 102.085 40.1355 102.242 39.4448C102.608 37.8279 102.702 36.1856 102.622 34.5357C102.504 32.0647 102.142 29.6252 101.568 27.218C101.542 27.1096 101.542 26.9894 101.38 26.9077C101.159 27.0642 101.088 27.3306 100.981 27.5661C100.584 28.4422 100.333 29.3698 100.04 30.2823C99.6405 31.5237 99.188 32.7417 98.5104 33.8642C98.2021 34.3744 97.8677 34.868 97.4544 35.2971C96.7602 36.0174 96.2796 36.8639 95.9027 37.7812C95.6947 38.2879 95.4729 38.7905 95.2257 39.2787C94.8172 40.0827 94.1869 40.6526 93.3472 41.0007C92.4285 41.381 91.4728 41.5788 90.4855 41.6392C90.2122 41.6557 89.9396 41.6392 89.6829 41.5369C89.6959 41.4208 89.7749 41.37 89.8518 41.324C90.6393 40.8517 91.192 40.1589 91.6568 39.3872C91.904 38.9759 92.1484 38.5626 92.3784 38.1417C92.8638 37.2519 93.5422 36.5399 94.4554 36.1135C95.8848 35.4454 96.7609 34.2858 97.4619 32.9435C98.3463 31.2511 98.8461 29.4213 99.3549 27.5964C99.6494 26.5411 99.9357 25.483 100.317 24.4545C100.348 24.3687 100.385 24.2849 100.414 24.1984C101.487 20.9783 103.92 19.6223 107.115 19.3422C108.396 19.2303 109.677 19.3662 110.949 19.5021C115.665 20.0075 120.392 20.1132 125.13 20.0226C128.605 19.956 132.081 19.772 135.555 19.8935C138.671 20.0027 141.741 20.4489 144.667 21.6148C146.882 22.497 148.562 23.9526 149.633 26.103C150.285 27.411 150.961 28.7073 151.652 29.9946C152.866 32.2535 154.278 34.3874 155.798 36.4506C155.865 36.5412 155.937 36.6264 156.056 36.774C156.224 36.5028 156.345 36.244 156.544 36.0455C156.79 35.8011 157.057 35.5889 157.378 35.4551C157.871 35.2498 158.081 35.3068 158.335 35.773C158.509 36.0922 158.638 36.4369 158.773 36.7754C158.866 37.0061 158.935 37.2457 159.033 37.5341C159.644 37.3109 160.22 37.0596 160.843 36.9594C161.298 36.8866 161.753 36.8358 162.207 36.9051C162.823 36.9985 163.077 37.3219 163.059 37.9385C163.038 38.6477 162.683 39.1956 162.198 39.6728C161.886 39.9797 161.524 40.2275 161.13 40.4102C160.818 40.5544 160.742 40.7617 160.818 41.0707C160.943 41.5843 161.127 42.0724 161.401 42.5256C161.78 43.1579 161.874 43.8067 161.74 44.5538C161.647 45.0721 161.843 45.6324 161.998 46.1569C162.275 47.0969 162.562 48.0327 162.841 48.972C163.011 49.5425 163.246 50.0842 163.513 50.6163C164.137 51.8639 163.761 52.4983 162.358 52.5937C162.314 52.5965 162.269 52.5731 162.225 52.5621C161.728 52.4887 161.26 52.3095 160.794 52.1378C160.242 51.9346 160.027 51.4506 159.912 50.9136C159.675 49.8089 159.114 48.88 158.369 48.0478C157.991 47.6249 157.536 47.3571 156.981 47.2198C155.771 46.9204 154.646 46.4391 153.668 45.6338C152.861 44.9685 152.377 44.1885 152.422 43.0982C152.459 42.2097 152.476 41.3165 152.29 40.4322C152.158 39.8012 151.86 39.2608 151.234 39.1105C149.915 38.7939 148.817 38.0524 147.651 37.4304C146.505 36.8193 146.15 36.9161 145.299 37.9069C145.06 38.1849 144.793 38.4355 144.53 38.6896C143.672 39.5204 141.949 39.4476 141.56 37.8595C141.39 37.1681 141.239 36.4664 141.214 35.7647C141.172 34.5618 140.815 33.4811 140.244 32.4423C139.78 31.5978 139.686 30.7258 140.078 29.8058C140.744 28.2417 142.206 27.7982 143.595 28.7773C144.082 29.1199 144.548 29.4913 145.122 29.6856C145.934 29.9603 146.537 29.5051 146.51 28.6407C146.474 27.4735 145.605 26.5198 144.414 26.5232C143.081 26.528 141.988 26.1078 140.984 25.2304C139.889 24.2733 138.038 24.357 136.943 25.3114C136.477 25.7172 136.048 26.1634 135.628 26.6159C134.972 27.3231 134.808 28.1243 135.222 29.0183C135.472 29.5579 135.752 30.0832 136.015 30.616C136.188 30.9655 136.323 31.3266 136.429 31.7035C136.78 32.9449 136.374 33.902 135.358 34.6366C134.858 34.9985 134.336 35.3301 133.822 35.672C133.421 35.9398 133.049 36.2385 132.751 36.6257C131.631 38.0806 130.131 38.958 128.383 39.4153C126.794 39.8307 125.663 39.2801 124.978 37.8005C124.708 37.2169 124.233 36.8173 123.789 36.3984C122.901 35.5629 122.558 34.5742 122.746 33.3665C122.906 32.3331 122.614 31.3376 122.172 30.4409C121.46 28.9977 121.842 27.7913 122.723 26.6186C123.025 26.2163 123.343 25.8215 123.508 25.3368C123.817 24.4332 123.436 23.8551 122.485 23.7741C122.254 23.7542 122.027 23.783 121.807 23.8483C120.34 24.2822 119.156 25.0182 118.6 26.5637C118.097 27.9609 117.621 29.3691 116.991 30.721C116.367 32.0612 115.383 32.9607 114.018 33.5031C112.915 33.9418 111.816 34.3936 110.859 35.1344C110.268 35.5917 109.854 36.141 109.747 36.879C109.602 37.8774 109.023 38.531 108.168 38.9862C106.459 39.8966 105.15 41.1929 104.34 42.9664C104.1 43.4916 103.726 43.8836 103.189 44.0848C102.4 44.3835 101.636 44.7075 101.119 45.4223Z" fill="#1D1C1A"/>
<path d="M101.119 45.4229C101.296 44.7239 101.794 44.3786 102.449 44.1863C102.754 44.0964 103.055 43.9796 103.34 43.8403C103.719 43.6556 104.001 43.3727 104.166 42.9649C104.882 41.1948 106.186 39.9494 107.785 38.9765C108.058 38.8103 108.348 38.6709 108.612 38.4924C109.127 38.145 109.47 37.6857 109.527 37.0375C109.598 36.2123 110.028 35.5888 110.655 35.0732C111.28 34.5603 111.984 34.1882 112.716 33.8627C113.238 33.6314 113.759 33.3993 114.289 33.1892C115.148 32.8493 115.812 32.2822 116.326 31.5242C116.895 30.6838 117.255 29.7466 117.6 28.8026C117.952 27.8379 118.239 26.8458 118.699 25.9271C119.459 24.4125 120.809 23.7905 122.411 23.6071C122.606 23.5845 122.82 23.6497 123.014 23.7108C123.697 23.9257 123.926 24.3088 123.798 25.0133C123.683 25.6415 123.333 26.1496 122.934 26.6247C122.47 27.1774 122.147 27.7947 121.988 28.5012C121.889 28.9413 121.926 29.3505 122.112 29.7679C122.447 30.5184 122.743 31.2839 122.879 32.1037C122.956 32.5603 122.982 33.012 122.912 33.4679C122.733 34.6248 123.098 35.584 123.957 36.3633C124.178 36.5631 124.406 36.754 124.633 36.9455C124.866 37.1419 125.022 37.3822 125.132 37.6685C125.648 39.0094 126.588 39.5848 127.97 39.317C129.828 38.9579 131.386 38.0496 132.564 36.5507C132.882 36.1456 133.258 35.8278 133.678 35.5483C134.192 35.2071 134.728 34.8967 135.222 34.5301C136.358 33.6883 136.615 32.8239 136.188 31.4665C136.001 30.8726 135.687 30.3419 135.394 29.8002C134.481 28.1125 134.582 27.3628 135.931 26.0315C136.321 25.6463 136.728 25.2769 137.143 24.9185C137.671 24.4606 138.293 24.2951 138.99 24.361C139.945 24.451 140.81 24.6974 141.523 25.4129C142.142 26.0342 142.955 26.2855 143.829 26.3157C144.012 26.3219 144.195 26.3144 144.378 26.3192C145.73 26.3562 146.745 27.4273 146.701 28.7689C146.67 29.6972 146.087 30.1339 145.187 29.9039C144.596 29.7528 144.114 29.404 143.649 29.0326C143.285 28.7408 142.894 28.5128 142.428 28.4517C141.662 28.3508 141.024 28.5815 140.583 29.2372C139.968 30.1517 139.719 31.1466 140.309 32.138C141.121 33.5009 141.371 34.9874 141.487 36.5233C141.521 36.9805 141.62 37.4268 141.748 37.8656C142.07 38.9627 143.2 39.3864 144.182 38.7739C144.455 38.603 144.683 38.3778 144.885 38.1265C145.071 37.8951 145.251 37.6582 145.444 37.4316C145.967 36.8178 146.362 36.7183 147.141 36.9847C147.777 37.2016 148.334 37.5607 148.875 37.9411C149.37 38.2885 149.908 38.5164 150.487 38.6723C150.773 38.7492 151.06 38.8302 151.334 38.9421C151.976 39.2051 152.353 39.6953 152.473 40.3757C152.581 40.9868 152.58 41.604 152.559 42.2227C152.491 44.314 152.816 44.9223 154.574 46.0689C155.293 46.5379 156.083 46.8359 156.91 47.0151C157.767 47.2011 158.41 47.6536 158.894 48.3642C159.438 49.1607 159.932 49.9791 160.091 50.9527C160.206 51.653 160.624 52.0436 161.32 52.1336C161.671 52.1789 161.99 52.2757 162.222 52.562C161.815 53.0001 161.309 53.2342 160.715 53.2685C160.108 53.3035 159.559 53.09 159.397 52.5016C159.077 51.3378 158.156 50.8613 157.217 50.3766C156.567 50.0415 155.937 49.6708 155.301 49.3117C153.993 48.5736 153.08 47.5039 152.5 46.1321C152.027 45.013 151.438 43.9577 150.72 42.9752C150.395 42.5296 150.027 42.1224 149.586 41.7894C148.513 40.9772 147.531 41.2656 147.045 42.5303C146.98 42.7005 146.936 42.879 146.883 43.0534C146.744 43.5141 146.439 43.8526 146.047 44.1039C145.645 44.3614 145.376 44.2577 145.198 43.8032C145.049 43.4208 144.924 43.0287 144.769 42.6483C144.701 42.4815 144.607 42.3167 144.49 42.1801C144.339 42.0036 144.065 42.0517 143.993 42.268C143.944 42.4135 143.955 42.5824 143.955 42.741C143.952 43.6611 144.066 44.566 144.359 45.4407C144.516 45.9062 144.601 46.3875 144.491 46.8585C144.282 47.7552 144.414 48.6375 144.549 49.5156C144.698 50.4858 144.905 51.447 145.102 52.4089C145.33 53.526 145.839 54.5154 146.509 55.4285C146.739 55.7416 146.982 56.0472 147.185 56.3774C147.354 56.6514 147.259 56.8196 146.946 56.8189C146.123 56.8161 145.302 56.7365 144.486 56.6314C144.197 56.5944 144.008 56.3753 143.844 56.1508C143.667 55.9085 143.553 55.6325 143.469 55.3468C143.347 54.9342 143.18 54.5724 142.701 54.4776C142.473 54.433 142.427 54.2531 142.425 54.0622C142.42 53.7883 142.425 53.5136 142.436 53.2397C142.509 51.4779 142.307 49.7408 141.492 48.1733C140.946 47.1215 140.618 46.0319 140.341 44.901C140.107 43.9419 139.698 43.0445 139.187 42.2007C138.385 40.8735 137.831 39.4612 137.637 37.9157C137.629 37.8477 137.616 37.7797 137.597 37.7145C137.502 37.3939 137.353 37.3492 137.128 37.5937C136.838 37.9095 136.697 38.2789 136.729 38.7204C136.793 39.5937 136.981 40.4368 137.288 41.2546C137.561 41.9817 137.846 42.704 138.118 43.4311C138.196 43.6405 138.335 43.9144 138.107 44.0572C137.884 44.1966 137.691 43.9522 137.52 43.8094C137.187 43.5306 136.856 43.2484 136.536 42.9546C136.111 42.5639 135.612 42.3881 135.041 42.3655C133.942 42.3222 132.847 42.3833 131.752 42.4465C129.949 42.5508 128.144 42.6456 126.344 42.7884C124.792 42.9113 123.296 42.592 121.79 42.325C121.205 42.2213 120.62 42.1197 120.04 41.9961C119.701 41.924 119.455 41.9906 119.328 42.3346C118.968 43.3088 118.255 43.9659 117.379 44.463C117.068 44.6395 116.982 44.8736 117.048 45.2038C117.079 45.3597 117.086 45.5217 117.093 45.681C117.1 45.8561 117.033 46.001 116.859 46.0573C116.691 46.1108 116.532 46.058 116.432 45.9165C116.328 45.7689 116.251 45.6021 116.166 45.4414C115.921 44.9773 115.665 44.866 115.091 44.9773C114.624 45.0679 114.524 45.1846 114.463 45.7195C114.458 45.7648 114.457 45.8108 114.454 45.8561C114.432 46.1513 114.358 46.4164 113.994 46.4164C113.67 46.4164 113.602 46.1678 113.542 45.909C113.372 45.1716 113.146 44.969 112.53 44.9738C112.078 44.9773 111.931 45.0851 111.788 45.5265C111.76 45.613 111.736 45.7023 111.724 45.7922C111.691 46.0367 111.557 46.1651 111.31 46.1472C111.078 46.13 110.933 45.9975 110.894 45.7641C110.876 45.6515 110.863 45.5368 110.861 45.4229C110.852 44.9038 110.618 44.5742 110.104 44.4197C109.735 44.3085 109.368 44.1685 109.04 43.9549C108.58 43.6556 108.528 43.4633 108.809 43.0061C109.686 41.5793 110.8 40.4107 112.294 39.5958C113.471 38.9538 114.725 38.8556 116.011 38.8542C116.239 38.8542 116.47 38.8838 116.689 38.8055C116.989 38.6984 117.047 38.4492 116.824 38.224C116.589 37.9878 116.28 37.9013 115.963 37.836C114.643 37.5648 113.371 37.7797 112.125 38.2233C111.28 38.5247 110.496 38.9504 109.796 39.5127C108.267 40.741 106.965 42.1691 106.014 43.8986C105.871 44.1588 105.746 44.4383 105.557 44.6621C104.517 45.8973 104.087 47.3776 103.809 48.921C103.542 50.4102 103.382 51.9022 103.559 53.4223C103.649 54.2009 103.914 54.8793 104.393 55.4869C104.648 55.8096 104.907 56.1289 105.147 56.4632C105.311 56.6925 105.216 56.8711 104.954 56.904C104.274 56.9898 103.591 57.0976 102.909 57.1059C102.157 57.1148 101.409 56.2655 101.432 55.5082C101.443 55.1326 101.471 54.7756 101.041 54.5799C100.823 54.4804 100.816 54.2497 100.837 54.0396C100.885 53.5624 100.94 53.0852 100.998 52.6094C101.217 50.8346 101.241 49.0556 101.147 47.2718C101.119 46.658 101.128 46.0401 101.119 45.4229Z" fill="white"/>
<path d="M131.486 46.1692C131.513 45.6357 131.554 44.9972 131.512 44.358C131.494 44.0937 131.583 43.9268 131.874 43.8829C132.756 43.7483 133.635 43.6467 134.532 43.7298C135.024 43.7751 135.384 44.0161 135.719 44.3415C135.876 44.4932 135.898 44.6381 135.78 44.8242C135.408 45.4112 135.263 46.0875 135.045 46.7336C134.934 47.0597 134.836 47.3955 134.591 47.644C134.189 48.0518 134.002 48.5592 133.862 49.092C133.596 50.1054 133.293 51.1072 133.21 52.1645C133.127 53.2397 133.385 54.1975 133.997 55.0715C134.076 55.1835 134.159 55.2926 134.235 55.4066C134.334 55.5556 134.492 55.7108 134.371 55.8968C134.274 56.0472 134.08 55.9861 133.924 55.9854C133.445 55.9833 132.965 55.9833 132.486 55.9675C131.593 55.938 131.092 55.5123 130.918 54.6507C130.842 54.2772 130.844 53.8645 130.34 53.754C130.192 53.7217 130.172 53.5459 130.193 53.4072C130.213 53.2734 130.248 53.1381 130.301 53.0138C131.18 50.9232 131.657 48.7597 131.488 46.4789C131.482 46.4116 131.486 46.3422 131.486 46.1692Z" fill="white"/>
<path d="M109.693 45.8276C110.118 45.9135 110.307 46.1902 110.47 46.4943C110.59 46.7168 110.71 46.9358 110.962 47.0415C111.369 47.2118 111.677 47.1335 112.055 46.7566C112.455 46.3591 112.826 46.3639 113.114 46.8335C113.327 47.1782 113.572 47.3999 113.984 47.3787C114.279 47.3635 114.317 47.5201 114.302 47.7631C114.208 49.3725 114.651 50.8803 115.19 52.3681C115.612 53.5319 116.389 54.4588 117.203 55.3596C117.352 55.5244 117.63 55.6624 117.535 55.9088C117.441 56.1512 117.141 56.0819 116.92 56.099C116.42 56.1382 115.919 56.1746 115.417 56.1958C114.431 56.2384 113.822 55.7441 113.682 54.767C113.627 54.3812 113.546 54.0976 113.103 53.9596C112.726 53.8422 112.74 53.4042 112.687 53.0787C112.555 52.2651 112.363 51.4652 112.098 50.6887C111.615 49.2764 111.011 47.9286 109.882 46.8857C109.559 46.587 109.57 46.5403 109.693 45.8276Z" fill="white"/>
<path d="M56.5033 103.593C55.012 106.192 52.7381 107.809 49.9182 108.625C44.6322 110.156 39.8006 109.166 35.4408 105.816C33.1229 104.034 31.1681 101.892 29.2814 99.6797C27.8121 97.9578 26.4011 96.1857 24.835 94.5482C23.8683 93.5382 22.8467 92.5907 21.6335 91.876C21.343 91.705 21.0615 91.5059 20.7265 91.4379C20.5583 91.613 20.6317 91.8039 20.631 91.9734C20.6255 94.3978 20.629 96.8215 20.6262 99.2458C20.6255 99.7999 20.6187 99.8081 20.057 99.8095C18.1593 99.8136 16.2609 99.8129 14.3632 99.8102C13.7699 99.8095 13.7644 99.804 13.7638 99.2115C13.7617 96.0559 13.7631 92.8997 13.7631 89.7441C13.7631 83.7756 13.7624 77.8063 13.7638 71.8378C13.7638 70.8045 13.6676 69.7849 13.3841 68.7873C13.1712 68.0382 12.8389 67.3489 12.3405 66.7303C12.543 66.5868 12.7291 66.6458 12.8987 66.6458C15.2537 66.641 17.6093 66.6424 19.9644 66.6424C20.7031 66.6424 20.6269 66.6046 20.6269 67.3091C20.6276 73.5062 20.6269 79.7041 20.6303 85.9012C20.6303 86.1477 20.5747 86.4031 20.7031 86.6702C21.4103 86.6448 22.0894 86.4594 22.7423 86.1985C26.0778 84.8645 28.4595 82.4889 30.1005 79.3416C31.0706 77.4809 31.5382 75.496 31.3583 73.3861C31.3158 72.889 31.2265 72.3953 31.1578 71.8893C31.2588 71.7204 31.4359 71.7815 31.5849 71.7808C33.9172 71.7767 36.2496 71.776 38.5819 71.7795C39.1367 71.7801 39.1401 71.7884 39.0708 72.3589C38.8456 74.1956 38.2187 75.9079 37.414 77.5571C35.723 81.0223 33.4085 83.987 30.303 86.3043C28.7122 87.4914 26.9669 88.3695 25.0499 88.8975C24.8886 89.0898 25.1255 89.074 25.1824 89.1516C27.2532 89.5848 28.98 90.6662 30.5639 92.0146C32.2557 93.4551 33.7463 95.0967 35.2575 96.7164C36.5043 98.0532 37.7539 99.3866 39.1134 100.611C39.9798 101.391 40.8875 102.119 41.8535 102.774C45.7232 105.398 49.8585 105.893 54.2479 104.324C54.9983 104.055 55.7288 103.732 56.4683 103.434C56.5061 103.463 56.5239 103.496 56.5219 103.534C56.5198 103.573 56.5136 103.593 56.5033 103.593Z" fill="white"/>
<path d="M125.957 102.476C125.972 102.708 125.843 102.824 125.775 102.964C124.945 104.658 125.242 106.553 126.553 107.908C127.27 108.649 128.139 109.149 129.12 109.431C130.403 109.801 131.709 109.953 133.051 109.781C135.157 109.51 136.578 108.398 137.338 106.422C137.603 105.734 137.75 105.02 137.839 104.293C137.931 103.538 137.947 98.9094 137.874 98.1233C137.673 98.0423 137.592 98.2249 137.481 98.3162C135.791 99.7066 133.839 100.37 131.666 100.426C130.426 100.458 129.196 100.377 127.987 100.09C124.571 99.2781 122.472 97.1126 121.53 93.7724C120.958 91.7469 120.886 89.6727 120.934 87.5848C120.982 85.4722 121.381 83.4069 121.721 81.332C121.795 80.8823 121.838 80.4244 121.856 79.9685C121.889 79.1837 121.625 78.4868 121.155 77.8661C120.991 77.6499 120.815 77.4425 120.596 77.1706C123.549 77.1706 126.435 77.1706 129.34 77.1706C129.423 77.5757 129.25 77.943 129.169 78.311C128.597 80.9002 128.054 83.4941 127.773 86.1341C127.548 88.2563 127.451 90.3765 127.966 92.4768C128.136 93.1696 128.393 93.8259 128.78 94.4274C129.495 95.5376 130.52 96.1631 131.824 96.297C133.916 96.5112 135.792 95.8967 137.539 94.7741C137.928 94.5242 137.916 94.1974 137.916 93.8273C137.914 88.7719 137.914 83.7166 137.914 78.6619C137.914 78.3186 137.909 77.9753 137.916 77.6327C137.926 77.1404 137.93 77.1281 138.409 77.1267C140.376 77.1212 142.343 77.1212 144.31 77.1267C144.792 77.1281 144.793 77.1411 144.808 77.6293C144.811 77.7432 144.808 77.8579 144.808 77.9726C144.808 85.5209 144.815 93.0693 144.804 100.618C144.801 102.425 144.688 104.224 144.209 105.985C143.025 110.345 140.152 112.865 135.777 113.706C133.189 114.204 130.592 114.209 128.039 113.442C126.269 112.91 124.721 112.014 123.599 110.505C122.36 108.837 122.007 106.994 122.612 104.991C122.828 104.276 123.217 103.66 123.784 103.17C124.396 102.64 125.095 102.354 125.957 102.476Z" fill="white"/>
<path d="M80.6654 91.8284C82.6194 94.2548 84.6744 96.3146 87.729 97.0321C88.178 97.1378 88.6339 97.1818 89.0885 97.1934C89.5416 97.2051 89.9961 97.1399 90.4465 97.1083C90.5859 97.2882 90.4589 97.4193 90.3944 97.5498C89.7799 98.7897 88.7527 99.5587 87.4791 100C85.3994 100.72 83.3348 100.538 81.308 99.7695C79.4213 99.0548 77.9025 97.8306 76.6275 96.2906C75.4054 94.8144 74.5108 93.1494 73.84 91.3602C73.6628 90.8878 73.6718 90.8823 74.1586 90.7978C76.035 90.4738 77.8641 89.9987 79.5627 89.1061C80.48 88.6241 81.3211 88.0384 82.0228 87.2681C82.5212 86.7216 82.9112 86.1084 83.1529 85.4054C83.7818 83.5756 83.2003 81.8529 81.584 80.797C80.4052 80.0266 79.0745 79.6977 77.6979 79.5803C76.0275 79.4375 74.3625 79.5144 72.7243 79.9229C72.1063 80.0774 72.1029 80.0726 72.1029 80.7317C72.1022 86.7936 72.105 92.8555 72.1002 98.9174C72.0995 99.9109 72.267 99.8066 71.176 99.81C69.3922 99.8148 67.6078 99.8135 65.824 99.81C65.2494 99.8093 65.2404 99.8031 65.2404 99.2649C65.2384 92.1278 65.2384 84.9907 65.2404 77.8542C65.2404 77.2981 65.248 77.2967 65.7973 77.2281C70.2972 76.6685 74.8115 76.3836 79.3471 76.5202C81.5264 76.5854 83.674 76.8642 85.7365 77.6222C86.3181 77.8357 86.8632 78.1199 87.396 78.4337C90.6443 80.3479 91.1482 84.7339 89.1846 87.3587C88.4183 88.3838 87.477 89.1981 86.3929 89.8586C84.7499 90.8589 82.9593 91.448 81.0698 91.7584C80.9805 91.7728 80.8926 91.7886 80.6654 91.8284Z" fill="white"/>
<path d="M108.746 91.8063C108.713 91.9272 108.761 92.0054 108.818 92.0775C110.028 93.6162 111.385 94.9969 113.086 95.9986C114.623 96.9043 116.265 97.3732 118.067 97.126C118.198 97.1082 118.336 97.0642 118.489 97.1679C118.233 97.9733 117.722 98.6008 117.062 99.1116C115.998 99.9356 114.771 100.332 113.442 100.414C110.891 100.571 108.613 99.8257 106.604 98.2623C104.162 96.3612 102.669 93.8139 101.623 90.9089C102.472 90.7284 103.272 90.578 104.062 90.3851C105.489 90.037 106.854 89.5268 108.116 88.7627C108.944 88.2615 109.687 87.6593 110.284 86.891C110.768 86.2683 111.113 85.5831 111.258 84.801C111.562 83.1711 111.026 81.8755 109.693 80.9149C108.508 80.0601 107.132 79.7175 105.709 79.5871C104.017 79.4319 102.329 79.5088 100.67 79.9249C100.06 80.078 100.056 80.0759 100.054 80.6788C100.052 81.662 100.054 82.6451 100.054 83.6283C100.054 88.7737 100.054 93.919 100.054 99.0643C100.054 99.8758 100.102 99.8106 99.3176 99.8106C97.4652 99.8113 95.6135 99.8133 93.7611 99.8092C93.2001 99.8078 93.1905 99.7996 93.1905 99.24C93.1884 92.105 93.1884 84.9706 93.1905 77.8356C93.1905 77.3062 93.2056 77.2939 93.7048 77.2314C98.3853 76.6491 103.082 76.3484 107.798 76.54C109.928 76.6265 112.032 76.9313 114.022 77.7587C115.492 78.3697 116.758 79.2472 117.525 80.6904C118.682 82.8662 118.667 85.901 116.46 88.1674C115.019 89.6463 113.267 90.5849 111.327 91.2131C110.48 91.4877 109.61 91.6594 108.746 91.8063Z" fill="white"/>
<path d="M62.3756 83.551C60.182 81.7246 57.7357 80.7751 55.0875 80.3034C53.2653 79.9786 51.4458 79.9855 49.6531 80.5025C46.6699 81.3628 45.0763 83.4329 44.5442 86.4147C44.5332 86.4779 44.5586 86.5473 44.573 86.6619C49.3496 86.6619 54.1235 86.6619 58.9907 86.6619C58.7134 87.5318 58.2973 88.2109 57.6443 88.7416C56.8568 89.3822 55.9286 89.6884 54.9433 89.8237C54.3329 89.9074 53.717 89.9555 53.0971 89.9541C50.4901 89.9473 47.8831 89.9493 45.2761 89.9541C45.0303 89.9548 44.7756 89.8937 44.4817 90.0413C44.8017 92.5213 45.8226 94.5556 48.1124 95.8032C49.386 96.4966 50.7736 96.7926 52.2011 96.8097C55.8812 96.8543 59.2365 95.856 62.1477 93.5361C62.1957 93.4983 62.2644 93.4859 62.3523 93.4495C62.2747 94.2906 61.976 95.0239 61.5504 95.7091C60.5788 97.2739 59.194 98.3635 57.5558 99.1544C56.0762 99.8685 54.5018 100.254 52.8739 100.377C50.1996 100.577 47.5734 100.322 45.066 99.3014C41.7038 97.933 39.1922 95.681 38.0374 92.1677C36.3676 87.0869 38.0374 81.0243 44.056 78.0617C46.639 76.7908 49.3936 76.3734 52.2491 76.5066C54.6687 76.6199 56.9426 77.2117 58.9736 78.5759C60.2287 79.4191 61.2462 80.4833 61.904 81.8633C62.1408 82.3625 62.2919 82.8843 62.3756 83.551Z" fill="white"/>
<path d="M203.843 66.642C204.911 66.642 205.845 66.642 206.779 66.642C208.425 66.642 210.072 66.6495 211.718 66.6358C212.057 66.6331 212.25 66.7038 212.197 67.0869C212.181 67.1988 212.195 67.3155 212.195 67.4295C212.195 77.9494 212.196 88.4694 212.194 98.9893C212.194 99.8846 212.282 99.8098 211.396 99.8105C209.612 99.8119 207.828 99.8119 206.045 99.8105C205.339 99.8098 205.336 99.8077 205.336 99.1074C205.335 93.6188 205.335 88.1302 205.335 82.6416C205.335 79.0741 205.337 75.5066 205.334 71.9384C205.333 70.9764 205.272 70.0207 205.036 69.0821C204.823 68.2335 204.491 67.4412 203.843 66.642Z" fill="white"/>
<path d="M174.432 77.1235C174.073 77.1235 173.849 77.1235 173.626 77.1235C170.059 77.1235 166.492 77.1276 162.925 77.1208C161.896 77.1187 160.867 77.1352 159.842 77.221C157.755 77.3954 155.73 77.8314 153.829 78.7349C150.932 80.1122 148.916 82.262 148.08 85.4134C147.616 87.1649 147.594 88.9445 147.89 90.7201C148.409 93.8427 149.92 96.3707 152.547 98.1792C154.659 99.6327 157.039 100.268 159.573 100.415C161.82 100.544 163.944 100.17 165.867 98.9331C165.921 98.898 165.996 98.8857 166.115 98.988C166.077 100.599 166.178 102.261 166.046 103.922C165.986 104.676 165.86 105.417 165.617 106.135C164.896 108.268 163.454 109.507 161.192 109.784C159.873 109.946 158.591 109.797 157.329 109.44C156.441 109.189 155.64 108.751 154.951 108.124C153.453 106.758 153.072 104.755 153.967 102.937C154.035 102.798 154.163 102.68 154.129 102.473C153.417 102.361 152.784 102.562 152.209 102.975C151.475 103.502 151.005 104.224 150.759 105.081C150.104 107.375 150.698 109.372 152.278 111.098C153.355 112.276 154.719 113.012 156.238 113.446C159.144 114.276 162.066 114.223 164.971 113.459C168.789 112.456 171.216 110.009 172.318 106.233C172.789 104.619 172.97 102.963 172.972 101.288C172.979 94.8856 172.976 88.4832 172.974 82.08C172.972 80.3333 173.275 78.6738 174.432 77.1235ZM165.541 95.7281C163.647 96.6007 161.695 96.8726 159.667 96.3336C157.408 95.7335 155.926 94.2615 155.203 92.0768C154.396 89.6414 154.402 87.1649 155.226 84.7323C156.132 82.056 158.072 80.5723 160.825 80.0841C161.939 79.8864 163.06 79.9804 164.178 79.9571C164.681 79.9468 165.185 79.9715 165.687 79.9495C166.02 79.9351 166.122 80.0601 166.117 80.3855C166.101 81.46 166.112 82.5352 166.112 83.6104C166.112 84.9829 166.112 86.3547 166.112 87.7272C166.112 90.0829 166.097 92.4386 166.124 94.7943C166.129 95.2797 165.972 95.5296 165.541 95.7281Z" fill="white"/>
<path d="M240.854 84.087C240.355 80.9767 238.944 78.2977 236.935 75.9056C235.934 74.713 234.819 73.6268 233.78 72.4706C233.397 72.0449 233.026 71.6109 232.719 71.1255C231.81 69.6844 231.996 68.2631 233.244 67.1152C233.387 66.984 233.529 66.8522 233.687 66.7059C233.595 66.673 233.555 66.6462 233.516 66.6462C231.435 66.6442 229.353 66.6222 227.272 66.6531C226.246 66.6682 225.441 67.1666 224.872 68.0269C224.43 68.6936 224.228 69.4379 224.209 70.2288C224.171 71.878 224.78 73.3061 225.742 74.6079C226.233 75.2725 226.835 75.8328 227.564 76.4823C226.042 76.5798 224.699 76.8036 223.394 77.2245C218.062 78.9451 214.991 83.3784 215.106 88.6068C215.209 93.3326 217.362 96.8061 221.575 98.953C223.799 100.087 226.2 100.494 228.684 100.425C233.272 100.296 236.795 98.2884 239.16 94.3529C241.073 91.1685 241.433 87.6943 240.854 84.087ZM233.786 93.2777C232.945 95.0683 231.65 96.366 229.656 96.7669C227.219 97.2572 225.046 96.4401 223.639 94.438C222.847 93.312 222.431 92.0418 222.213 90.6947C221.943 89.0297 221.926 87.3654 222.328 85.7245C223.217 82.0911 225.569 79.9249 229.185 79.1655C231.035 78.7769 230.676 78.7522 231.844 80.1068C233.523 82.0533 234.402 84.3506 234.638 86.9013C234.687 87.4245 234.722 87.9484 234.75 88.3054C234.695 90.1297 234.498 91.7583 233.786 93.2777Z" fill="white"/>
<path d="M202.388 87.5674C202.064 83.0984 199.829 79.892 195.839 77.9112C193.755 76.8772 191.516 76.4769 189.01 76.4879C187.82 76.4632 186.461 76.6177 185.123 76.9507C180.036 78.2181 176.533 81.9305 175.958 86.9248C175.336 92.3227 177.906 97.1604 183.118 99.304C186.26 100.596 189.513 100.739 192.81 100.045C195.282 99.5244 197.47 98.4279 199.238 96.5988C201.671 94.0811 202.637 91.0217 202.388 87.5674ZM194.686 93.1103C194.383 93.882 193.965 94.5816 193.43 95.2181C191.231 97.8361 186.983 97.8058 184.813 95.1549C183.829 93.9534 183.313 92.5576 183.023 91.0594C182.858 90.2046 182.825 89.3361 182.799 88.6303C182.818 86.5519 183.076 84.6824 184.004 82.9721C184.949 81.2288 186.347 80.0767 188.373 79.811C191.006 79.4663 193.095 80.7846 194.241 82.8636C194.946 84.1441 195.292 85.5324 195.426 86.979C195.62 89.0758 195.463 91.1308 194.686 93.1103Z" fill="white"/>
<path fill-rule="evenodd" clip-rule="evenodd" d="M26.1108 36.7778L22.038 30.5147L23.3782 29.6509L27.335 31.2363V27.0735L28.5983 26.2358L32.7089 32.4866L31.2403 33.4526L28.7336 29.5418L28.7075 32.7502L28.0697 33.1697L24.9958 31.9448L27.5863 35.8179L26.1108 36.7778Z" fill="#0C7949"/>
<path fill-rule="evenodd" clip-rule="evenodd" d="M77.6099 14.0164L76.0101 6.7186L77.5687 6.38354L80.7112 9.2631L82.1805 5.36807L83.6574 5.03027L85.2983 12.3294L83.5825 12.7153L82.6179 8.17074L81.461 11.1643L80.7167 11.3311L78.2724 9.10107L79.3298 13.6387L77.6099 14.0164Z" fill="#0C7949"/>
<path fill-rule="evenodd" clip-rule="evenodd" d="M31.3011 24.6441L32.8666 23.7935L36.5879 30.2694L35.0705 31.1393L31.3011 24.6441Z" fill="#0C7949"/>
<path fill-rule="evenodd" clip-rule="evenodd" d="M90.3821 3.6627L92.1466 3.41553L93.3598 10.7854L91.6337 11.0676L90.3821 3.6627Z" fill="#0C7949"/>
<path fill-rule="evenodd" clip-rule="evenodd" d="M103.409 1.91538L105.184 1.77051L105.971 9.19805L104.231 9.38068L103.409 1.91538Z" fill="#0C7949"/>
<path fill-rule="evenodd" clip-rule="evenodd" d="M35.6898 22.198L37.2752 21.3857L40.0394 26.7988L42.3594 25.5712L43.0164 26.7988L39.1983 28.8387L35.6898 22.198Z" fill="#0C7949"/>
<path fill-rule="evenodd" clip-rule="evenodd" d="M41.5563 19.1735L43.1807 18.4293L44.4564 21.2031L45.3456 17.4042L47.163 16.583L46.0122 21.0678L50.4202 23.291L48.5451 24.1994L44.959 22.2666L46.3315 25.2237L44.775 25.9488L41.5563 19.1735Z" fill="#0C7949"/>
<path fill-rule="evenodd" clip-rule="evenodd" d="M55.8141 21.0965L53.1364 14.05L57.3987 12.4551L57.4571 13.9052L55.2964 14.7751L55.8333 16.302L58.0269 15.4424L58.5295 16.7085L56.3455 17.588L57.4179 20.4106L55.8141 21.0965Z" fill="#0C7949"/>
<path fill-rule="evenodd" clip-rule="evenodd" d="M173.751 13.8821L175.616 6.57812L180.019 7.72611L179.233 8.94549L176.965 8.41407L176.525 9.97194L178.815 10.5301L178.498 11.8553L176.205 11.3183L175.459 14.2439L173.751 13.8821Z" fill="#0C7949"/>
<path fill-rule="evenodd" clip-rule="evenodd" d="M63.3528 15.5396C63.5169 15.7036 65.6432 17.5307 65.6432 17.5307L67.5375 16.9217L64.6442 14.5344C64.6442 14.5344 64.5152 14.4444 64.3868 14.4444C64.3868 14.4444 65.6817 13.2779 64.8832 11.8732C64.084 10.4684 62.7115 10.752 61.88 10.9003L59.4282 11.7221L61.8347 18.8166L63.497 18.266L62.5591 15.6467L62.9745 15.453C62.9758 15.453 63.1887 15.3755 63.3528 15.5396ZM62.1931 14.4472L61.5333 12.535L62.0798 12.3174C62.0798 12.3174 63.0658 11.8725 63.4461 12.8261C63.8265 13.7798 62.9951 14.1664 62.9951 14.1664L62.1931 14.4472Z" fill="#0C7949"/>
<path fill-rule="evenodd" clip-rule="evenodd" d="M140.869 6.09028C140.959 6.3045 142.233 8.80163 142.233 8.80163L144.217 8.9568L142.446 5.65017C142.446 5.65017 142.361 5.51767 142.242 5.46892C142.242 5.46892 143.883 4.88119 143.676 3.27801C143.47 1.67482 142.092 1.41666 141.267 1.23815L138.687 1.06787L138.222 8.54553L139.97 8.66637L140.096 5.88705L140.554 5.86576C140.553 5.86645 140.779 5.87606 140.869 6.09028ZM140.21 4.63952L140.325 2.62025L140.914 2.62643C140.914 2.62643 141.994 2.58936 141.985 3.61581C141.974 4.64226 141.059 4.68483 141.059 4.68483L140.21 4.63952Z" fill="#0C7949"/>
<path fill-rule="evenodd" clip-rule="evenodd" d="M98.2538 7.42011C98.3849 7.61167 100.136 9.80052 100.136 9.80052L102.111 9.55266L99.7094 6.67104C99.7094 6.67104 99.5995 6.55844 99.4725 6.53441C99.4725 6.53441 100.961 5.62811 100.436 4.09976C99.9105 2.57141 98.5092 2.59613 97.6647 2.58789L95.103 2.94148L96.1556 10.3587L97.8913 10.1246L97.4546 7.37686L97.8988 7.26357C97.8988 7.26494 98.1226 7.22855 98.2538 7.42011ZM97.3159 6.13207L97.0214 4.13134L97.5988 4.01874C97.5988 4.01874 98.65 3.76402 98.847 4.77193C99.0441 5.77916 98.1556 6.00573 98.1556 6.00573L97.3159 6.13207Z" fill="#0C7949"/>
<path fill-rule="evenodd" clip-rule="evenodd" d="M112.755 2.96291L112.687 1.49361C112.687 1.49361 112.001 1.14551 110.86 1.14551C109.72 1.14551 108.199 1.86986 108.27 3.6392C108.357 5.81432 111.672 5.61109 111.682 6.78997C111.692 7.96953 109.392 7.53423 108.879 7.01242L108.328 8.34647C108.328 8.34647 109.379 8.89711 110.512 8.89711C111.644 8.89711 113.468 8.23936 113.509 6.67393C113.577 4.09304 110.068 4.43153 110.078 3.16546C110.086 2.13145 112.089 2.518 112.755 2.96291Z" fill="#0C7949"/>
<path fill-rule="evenodd" clip-rule="evenodd" d="M159.886 5.28184L160.151 3.83519C160.151 3.83519 159.561 3.34153 158.45 3.08475C157.339 2.82796 155.694 3.19186 155.364 4.93168C154.959 7.07041 158.236 7.619 157.98 8.76972C157.724 9.92113 155.58 8.97913 155.198 8.3557L154.361 9.53115C154.361 9.53115 155.261 10.3042 156.364 10.5597C157.467 10.8151 159.393 10.5844 159.785 9.06839C160.432 6.5692 156.937 6.10918 157.232 4.87744C157.472 3.8709 159.336 4.69824 159.886 5.28184Z" fill="#0C7949"/>
<path fill-rule="evenodd" clip-rule="evenodd" d="M167.101 6.60139L167.442 5.17054C167.442 5.17054 166.878 4.64667 165.783 4.33152C164.686 4.01638 163.025 4.29239 162.604 6.0123C162.086 8.12631 165.329 8.84723 165.012 9.98354C164.696 11.1198 162.605 10.0659 162.257 9.42259L161.359 10.552C161.359 10.552 162.216 11.3718 163.305 11.6849C164.393 11.998 166.328 11.8696 166.8 10.377C167.578 7.91552 164.113 7.27082 164.472 6.05693C164.764 5.0648 166.582 5.98964 167.101 6.60139Z" fill="#0C7949"/>
<path fill-rule="evenodd" clip-rule="evenodd" d="M230.322 32.8073L231.174 31.6093C231.174 31.6093 230.849 30.9124 229.951 30.2093C229.053 29.5062 227.41 29.1396 226.375 30.5759C225.104 32.3412 227.838 34.2245 227.119 35.1589C226.4 36.0927 224.857 34.333 224.775 33.6065L223.52 34.3172C223.52 34.3172 224.007 35.3985 224.898 36.0961C225.789 36.7937 227.631 37.4006 228.628 36.1936C230.271 34.2039 227.301 32.3082 228.089 31.3175C228.734 30.508 230.072 32.0466 230.322 32.8073Z" fill="#0C7949"/>
<path fill-rule="evenodd" clip-rule="evenodd" d="M72.9584 8.41741C71.4005 7.65049 69.3943 8.55953 69.3943 8.55953C68.3761 9.06212 67.2295 10.0865 67.3064 12.3193C67.3737 14.2624 69.1314 16.3578 71.956 15.6829C74.666 15.0355 75.0511 12.8796 75.0381 12.5122C75.0374 12.5129 75.3677 9.60315 72.9584 8.41741ZM71.8077 14.3399C70.2052 14.7821 69.1238 13.3149 69.0174 11.9609C68.9027 10.5026 69.5879 10.0625 70.1661 9.7336C70.1661 9.7336 71.1966 9.27221 72.0432 9.83522C73.5509 10.8383 73.2708 12.4642 73.2708 12.4642C73.2777 12.7052 73.345 13.9156 71.8077 14.3399Z" fill="#0C7949"/>
<path fill-rule="evenodd" clip-rule="evenodd" d="M214.65 22.0964C214.014 20.4801 211.918 19.8025 211.918 19.8025C210.827 19.4887 209.289 19.4743 207.844 21.1777C206.586 22.6601 206.474 25.3927 209.018 26.7947C211.457 28.1397 213.193 26.8057 213.431 26.5249C213.43 26.5249 215.633 24.5956 214.65 22.0964ZM209.811 25.7017C208.329 24.9498 208.516 23.1372 209.349 22.0641C210.246 20.9086 211.049 21.0445 211.698 21.1901C211.698 21.1901 212.77 21.5423 213.018 22.5289C213.458 24.2859 212.155 25.2993 212.155 25.2993C211.999 25.4826 211.234 26.4233 209.811 25.7017Z" fill="#0C7949"/>
<path fill-rule="evenodd" clip-rule="evenodd" d="M115.839 0.948667L117.569 0.912963L117.646 3.82273L120.952 3.71631L120.845 0.739258H122.569L122.808 8.21073H121.097L120.971 5.15678L117.714 5.2529L117.762 8.36521L116.061 8.40435L115.839 0.948667Z" fill="#0C7949"/>
<path fill-rule="evenodd" clip-rule="evenodd" d="M135.747 2.62044L135.837 1.16898C135.837 1.16898 131.842 -0.300322 129.805 2.47076C129.805 2.47076 128.826 3.72104 129.225 5.5508C129.601 7.27346 130.859 8.23125 132.471 8.38642C134.084 8.5409 135.991 7.74171 135.991 7.74171L136.107 4.50719L134.354 4.46874L134.316 6.97548C133.021 7.40734 130.552 6.66582 131.068 3.89543C131.069 3.89475 131.584 1.00764 135.747 2.62044Z" fill="#0C7949"/>
<path fill-rule="evenodd" clip-rule="evenodd" d="M150.655 2.04444L149.303 1.93115L145.581 9.02844L147.263 9.19734L148.133 7.5351L150.539 7.82485L151.042 9.6807L152.917 9.88393L150.655 2.04444ZM148.736 6.2347L149.713 4.29165L150.186 6.38918L148.736 6.2347Z" fill="#0C7949"/>
<path fill-rule="evenodd" clip-rule="evenodd" d="M169.307 8.2959L172.258 8.96601L171.948 10.2678L169.075 9.59768L169.307 8.2959Z" fill="#0C7949"/>
<path fill-rule="evenodd" clip-rule="evenodd" d="M186.627 9.64832L185.79 10.8725L183.547 10.1894L183.109 11.7232L185.352 12.3679L184.939 13.7081L182.697 13.025L182.194 14.7002L184.823 15.4864L184.411 16.8266L180.132 15.5125L182.31 8.3335L186.627 9.64832Z" fill="#0C7949"/>
<path fill-rule="evenodd" clip-rule="evenodd" d="M191.982 11.5085C190.659 11.0471 189.066 10.4546 189.066 10.4546L186.628 17.4846C187.182 17.6391 188.87 18.2707 188.87 18.2707C188.87 18.2707 192.749 19.843 194.193 16.5048C195.767 12.8666 191.982 11.5085 191.982 11.5085ZM192.498 15.8224C191.577 17.9679 189.173 16.9305 189.173 16.9305C189.173 16.9305 189.032 16.879 188.68 16.7808L190.23 12.3146C190.23 12.3146 190.301 12.3709 191.142 12.664C191.142 12.664 193.511 13.4653 192.498 15.8224Z" fill="#0C7949"/>
<path fill-rule="evenodd" clip-rule="evenodd" d="M207.158 17.7809L206.501 19.1988C205.85 18.0645 203.021 16.4599 201.746 19.3017C201.346 20.2815 201.352 22.8521 204.89 22.6008L204.852 23.8511C201.952 24.4505 198.949 22.184 199.787 19.2118C200.956 15.0648 205.489 16.0027 207.158 17.7809Z" fill="#0C7949"/>
<path fill-rule="evenodd" clip-rule="evenodd" d="M216.939 22.2783L218.653 23.2965L217.39 28.5805L220.444 25.9001L220.651 24.4692L222.159 25.4298L221.051 30.72L224.955 26.9952L226.438 27.8974L220.432 33.1168L219.143 32.3307L219.968 28.1809L216.72 30.939L215.509 30.192L216.939 22.2783Z" fill="#0C7949"/>
<path d="M180.364 64.2675L170.666 61.9928C170.666 61.9928 170.659 61.9907 170.643 61.9866V61.979C170.589 61.9674 170.533 61.9564 170.478 61.9447C170.198 61.8747 169.603 61.7305 168.692 61.5362C169.313 60.9553 169.798 60.4143 169.937 59.565C169.209 59.92 168.566 60.2523 167.761 60.3147C167.986 59.8486 168.207 59.4545 168.369 59.037C168.531 58.6168 168.747 58.1946 168.698 57.6048C167.849 58.3916 167.165 59.1791 166.214 59.8458C166.288 58.1479 167.009 56.8893 168.107 55.6377C167.478 55.7517 167.088 55.97 166.716 56.2288C165.813 56.8571 165.325 57.7805 164.916 58.7624C164.855 58.9086 164.89 59.1345 164.635 59.1716C164.297 58.174 163.942 57.1935 162.923 56.4795C163.286 57.6673 163.627 58.7418 163.41 60.0133C162.782 59.1002 162.18 58.3353 161.092 57.8918C161.203 58.1238 161.237 58.2062 161.28 58.2831C161.574 58.8091 161.744 59.3769 161.825 59.9687C161.845 60.1163 161.851 60.2248 161.836 60.301C154.739 59.2087 143.354 57.9385 127.64 57.6425C98.8749 57.1015 74.6204 63.7285 73.6537 63.9997C72.687 64.2702 72.5757 64.2558 72.5387 64.4089C72.4933 64.5956 72.9348 64.5119 72.9348 64.5119C75.583 63.7868 102.142 60.8324 102.142 60.8324C128.841 58.9704 148.818 60.4328 159.044 61.528V61.5465C159.208 61.5602 159.371 61.5719 159.535 61.5808C159.742 61.6035 159.944 61.6255 160.142 61.6481C160.187 61.6673 160.233 61.6838 160.281 61.6893C161.889 61.8822 163.501 62.0573 165.108 62.2626C165.373 62.2962 165.638 62.3299 165.903 62.3642C166.022 62.38 166.128 62.3931 166.22 62.4047C166.436 62.4322 166.651 62.4603 166.867 62.4878C170.858 63.0185 180.138 64.5345 180.138 64.5345C180.138 64.5345 180.596 64.689 180.596 64.5057C180.596 64.3224 180.364 64.2675 180.364 64.2675Z" fill="url(#paint0_radial_123_3)"/>
<path d="M102.49 124.55C90.8713 123.693 74.2208 121.605 57.3458 118.572C57.3458 118.572 56.616 118.437 56.5871 118.442C56.5583 118.446 56.4327 118.451 56.4711 118.572C56.5096 118.693 57.0945 118.659 58.8151 119.133C60.5357 119.607 89.4027 126.232 102.664 127.353C102.664 127.353 104.462 127.624 104.442 126C104.423 124.376 102.49 124.55 102.49 124.55Z" fill="url(#paint1_radial_123_3)"/>
<path d="M196.571 118.442C196.542 118.437 195.812 118.572 195.812 118.572C178.937 121.605 162.287 123.693 150.668 124.55C150.668 124.55 148.735 124.376 148.715 126C148.696 127.624 150.494 127.353 150.494 127.353C163.755 126.232 192.622 119.607 194.343 119.133C196.063 118.659 196.648 118.693 196.687 118.572C196.726 118.451 196.6 118.446 196.571 118.442Z" fill="url(#paint2_radial_123_3)"/>
<path d="M144.466 124.917C144.549 123.488 143.477 123.51 143.477 123.51C142.613 123.458 141.755 124.058 141.155 124.626C141.7 123.692 141.759 122.608 141.289 122.027C140.632 121.215 139.737 121.805 139.737 121.805C138.408 121.274 138.09 122.298 138.09 122.298C137.793 123.037 138.065 123.913 138.418 124.605C137.819 124.044 136.972 123.459 136.12 123.51C136.12 123.51 135.047 123.488 135.13 124.917C135.13 124.917 134.288 125.578 134.85 126.459C135.245 127.079 136.267 127.366 137.31 127.165C136.672 127.57 136.025 128.148 135.846 128.878C135.846 128.878 135.507 129.896 136.896 130.24C136.896 130.24 137.278 131.24 138.286 130.965C138.95 130.783 139.498 129.991 139.661 129.025C139.932 129.988 140.492 130.804 141.08 130.965C142.088 131.241 142.47 130.24 142.47 130.24C143.86 129.896 143.521 128.878 143.521 128.878C143.326 128.086 142.581 127.472 141.893 127.064C143.063 127.434 144.302 127.157 144.747 126.459C145.308 125.578 144.466 124.917 144.466 124.917ZM140.465 127.651C140.162 127.651 139.903 127.467 139.794 127.204C139.684 127.467 139.424 127.651 139.122 127.651C138.721 127.651 138.394 127.325 138.394 126.924C138.394 126.522 138.721 126.196 139.122 126.196C139.135 126.196 139.146 126.197 139.159 126.198C139.165 126.192 139.171 126.185 139.177 126.18C139.111 126.07 139.071 125.941 139.071 125.803C139.071 125.401 139.398 125.075 139.799 125.075C140.201 125.075 140.527 125.401 140.527 125.803C140.527 125.942 140.488 126.07 140.421 126.181C140.427 126.186 140.432 126.192 140.438 126.198C140.447 126.197 140.456 126.196 140.466 126.196C140.868 126.196 141.194 126.523 141.194 126.924C141.193 127.326 140.867 127.651 140.465 127.651Z" fill="url(#paint3_radial_123_3)"/>
<path d="M117.981 124.917C118.064 123.488 116.992 123.51 116.992 123.51C116.128 123.458 115.27 124.058 114.67 124.626C115.215 123.692 115.274 122.608 114.804 122.027C114.147 121.215 113.253 121.805 113.253 121.805C111.923 121.274 111.605 122.298 111.605 122.298C111.308 123.037 111.58 123.913 111.934 124.605C111.334 124.044 110.488 123.459 109.635 123.51C109.635 123.51 108.562 123.488 108.646 124.917C108.646 124.917 107.803 125.578 108.365 126.459C108.76 127.079 109.782 127.366 110.825 127.165C110.187 127.57 109.54 128.148 109.361 128.878C109.361 128.878 109.022 129.896 110.411 130.24C110.411 130.24 110.793 131.24 111.801 130.965C112.465 130.783 113.014 129.991 113.176 129.025C113.448 129.988 114.007 130.804 114.595 130.965C115.603 131.241 115.985 130.24 115.985 130.24C117.375 129.896 117.036 128.878 117.036 128.878C116.841 128.086 116.096 127.472 115.408 127.064C116.578 127.434 117.817 127.157 118.263 126.459C118.824 125.578 117.981 124.917 117.981 124.917ZM113.98 127.651C113.678 127.651 113.418 127.467 113.309 127.204C113.199 127.467 112.939 127.651 112.637 127.651C112.236 127.651 111.91 127.325 111.91 126.924C111.91 126.522 112.236 126.196 112.637 126.196C112.65 126.196 112.661 126.197 112.674 126.198C112.68 126.192 112.686 126.185 112.692 126.18C112.626 126.07 112.587 125.941 112.587 125.803C112.587 125.401 112.913 125.075 113.314 125.075C113.716 125.075 114.042 125.401 114.042 125.803C114.042 125.942 114.003 126.07 113.936 126.181C113.942 126.186 113.947 126.192 113.953 126.198C113.962 126.197 113.971 126.196 113.981 126.196C114.383 126.196 114.709 126.523 114.709 126.924C114.708 127.326 114.382 127.651 113.98 127.651Z" fill="url(#paint4_radial_123_3)"/>
<path d="M132.917 124.414C133.03 122.466 131.568 122.497 131.568 122.497C130.391 122.427 129.223 123.244 128.405 124.018C129.147 122.744 129.227 121.268 128.587 120.477C127.692 119.371 126.473 120.174 126.473 120.174C124.662 119.45 124.227 120.845 124.227 120.845C123.823 121.852 124.193 123.046 124.675 123.989C123.859 123.224 122.706 122.427 121.543 122.497C121.543 122.497 120.081 122.466 120.195 124.414C120.195 124.414 119.047 125.315 119.812 126.515C120.351 127.359 121.744 127.752 123.164 127.476C122.295 128.028 121.414 128.817 121.17 129.81C121.17 129.81 120.708 131.198 122.601 131.666C122.601 131.666 123.122 133.03 124.495 132.654C125.4 132.406 126.147 131.328 126.369 130.011C126.739 131.322 127.501 132.434 128.303 132.654C129.676 133.03 130.196 131.666 130.196 131.666C132.09 131.197 131.628 129.81 131.628 129.81C131.362 128.732 130.347 127.895 129.41 127.34C131.004 127.844 132.692 127.466 133.299 126.515C134.065 125.315 132.917 124.414 132.917 124.414ZM127.465 128.141C127.052 128.141 126.699 127.889 126.55 127.531C126.4 127.89 126.047 128.141 125.635 128.141C125.087 128.141 124.643 127.697 124.643 127.149C124.643 126.601 125.087 126.157 125.635 126.157C125.651 126.157 125.668 126.158 125.684 126.16C125.693 126.151 125.701 126.143 125.709 126.135C125.618 125.985 125.565 125.809 125.565 125.621C125.565 125.073 126.009 124.629 126.557 124.629C127.104 124.629 127.549 125.073 127.549 125.621C127.549 125.81 127.495 125.985 127.404 126.136C127.412 126.143 127.419 126.151 127.427 126.159C127.44 126.158 127.453 126.157 127.466 126.157C128.014 126.157 128.458 126.601 128.458 127.149C128.457 127.697 128.013 128.141 127.465 128.141Z" fill="url(#paint5_radial_123_3)"/>
<path d="M254.601 58.7739V59.6054H255.906V63.4235H256.911V59.5738H258.129L258.356 58.7739H254.601Z" fill="#0C7949"/>
<path d="M258.748 63.372H259.708V60.395L260.958 62.1279H261.428L262.53 60.395V63.372H263.433V58.7739H262.576L261.209 61.0136H261.09L259.624 58.7739H258.748V63.372Z" fill="#0C7949"/>
<defs>
<radialGradient id="paint0_radial_123_3" cx="0" cy="0" r="1" gradientUnits="userSpaceOnUse" gradientTransform="translate(126.566 60.1166) scale(21.4805 21.4806)">
<stop stop-color="#FBF6B8"/>
<stop offset="0.6218" stop-color="#CBB87D"/>
</radialGradient>
<radialGradient id="paint1_radial_123_3" cx="0" cy="0" r="1" gradientUnits="userSpaceOnUse" gradientTransform="translate(122.73 126.116) scale(33.4327 33.4327)">
<stop stop-color="#F8F1B0"/>
<stop offset="1" stop-color="#C5B378"/>
</radialGradient>
<radialGradient id="paint2_radial_123_3" cx="0" cy="0" r="1" gradientUnits="userSpaceOnUse" gradientTransform="translate(122.73 126.116) scale(32.645 32.645)">
<stop stop-color="#F8F1B0"/>
<stop offset="1" stop-color="#C5B378"/>
</radialGradient>
<radialGradient id="paint3_radial_123_3" cx="0" cy="0" r="1" gradientUnits="userSpaceOnUse" gradientTransform="translate(122.73 126.116) scale(32.6449 32.645)">
<stop stop-color="#F8F1B0"/>
<stop offset="1" stop-color="#C5B378"/>
</radialGradient>
<radialGradient id="paint4_radial_123_3" cx="0" cy="0" r="1" gradientUnits="userSpaceOnUse" gradientTransform="translate(122.73 126.116) scale(32.6449 32.645)">
<stop stop-color="#F8F1B0"/>
<stop offset="1" stop-color="#C5B378"/>
</radialGradient>
<radialGradient id="paint5_radial_123_3" cx="0" cy="0" r="1" gradientUnits="userSpaceOnUse" gradientTransform="translate(122.731 126.117) scale(32.645 32.6449)">
<stop stop-color="#F8F1B0"/>
<stop offset="1" stop-color="#C5B378"/>
</radialGradient>
</defs>
</svg>
