<svg width="259" height="178" viewBox="0 0 259 178" fill="none" xmlns="http://www.w3.org/2000/svg">
<path d="M258 0H1V154.388C1 156.472 2.61886 158.215 4.69235 158.424C62.8408 164.277 72.8909 174.842 117.818 177.102C170.013 179.728 222.126 160.35 255.199 158.471C256.76 158.382 258 157.108 258 155.544V0Z" fill="url(#paint0_linear_113_218)" stroke="black" stroke-width="0.57688"/>
<path d="M15.422 110.961V89.4829C15.422 87.7352 16.7519 86.2747 18.4922 86.1113C21.0704 85.8693 25.4384 85.4819 27.2238 85.2257C76.2368 78.1873 97.6725 69.4291 129.903 70.2367C166.207 71.1459 193.903 79.318 203.633 81.0867C214.057 82.9811 236.182 85.8613 236.182 85.8613L239.617 86.167C241.375 86.2561 242.753 87.7098 242.747 89.4699L242.577 115.667V115.98L242.747 142.934C242.752 144.694 241.375 146.148 239.617 146.237L236.182 146.543C236.182 146.543 214.056 149.423 203.633 151.318C193.903 153.086 166.206 161.258 129.903 162.168C97.6731 162.975 76.2374 154.217 27.2238 147.179C25.4384 146.922 21.0704 146.535 18.4922 146.293C16.7526 146.13 15.422 144.669 15.422 142.921V113.971V110.961Z" fill="#0C7949"/>
<path d="M106.055 75.1682C105.836 74.5748 105.807 73.9454 105.713 73.3284C105.652 72.9249 105.787 72.5672 105.998 72.2323C106.139 72.0096 106.309 71.8016 106.337 71.5256C106.761 71.0194 106.927 70.403 107.068 69.7804C107.398 68.323 107.483 66.8426 107.411 65.3555C107.304 63.1282 106.978 60.9294 106.461 58.7596C106.437 58.6618 106.437 58.5535 106.291 58.4799C106.092 58.621 106.028 58.8611 105.932 59.0734C105.573 59.8631 105.347 60.6991 105.083 61.5216C104.723 62.6405 104.315 63.7384 103.704 64.7502C103.426 65.2101 103.125 65.655 102.753 66.0418C102.127 66.691 101.694 67.4541 101.354 68.2809C101.166 68.7376 100.966 69.1906 100.744 69.6306C100.375 70.3553 99.8073 70.869 99.0505 71.1827C98.2224 71.5256 97.361 71.7038 96.471 71.7583C96.2247 71.7731 95.979 71.7583 95.7476 71.6661C95.7593 71.5615 95.8305 71.5157 95.8998 71.4742C96.6097 71.0485 97.1078 70.424 97.5268 69.7284C97.7496 69.3577 97.9699 68.9852 98.1772 68.6058C98.6148 67.8037 99.2262 67.162 100.049 66.7777C101.338 66.1755 102.127 65.1302 102.759 63.9203C103.556 62.3948 104.007 60.7456 104.466 59.1006C104.731 58.1494 104.989 57.1957 105.333 56.2687C105.361 56.1913 105.394 56.1158 105.42 56.0378C106.387 53.1354 108.58 51.9131 111.461 51.6606C112.615 51.5597 113.77 51.6823 114.916 51.8048C119.167 52.2603 123.428 52.3556 127.698 52.2739C130.831 52.2139 133.963 52.048 137.095 52.1575C139.904 52.2559 142.671 52.6582 145.308 53.709C147.305 54.5043 148.819 55.8163 149.785 57.7546C150.372 58.9335 150.981 60.1019 151.605 61.2623C152.698 63.2984 153.971 65.2218 155.341 67.0815C155.401 67.1632 155.467 67.2399 155.573 67.373C155.726 67.1285 155.834 66.8952 156.014 66.7164C156.236 66.4961 156.476 66.3048 156.765 66.1842C157.21 65.9991 157.399 66.0505 157.628 66.4707C157.785 66.7585 157.901 67.0691 158.023 67.3742C158.106 67.5822 158.169 67.7982 158.257 68.0581C158.808 67.857 159.327 67.6305 159.889 67.5401C160.299 67.4745 160.709 67.4287 161.118 67.4912C161.673 67.5754 161.902 67.8669 161.886 68.4226C161.867 69.0619 161.547 69.5557 161.11 69.9859C160.829 70.2625 160.503 70.4859 160.147 70.6505C159.867 70.7805 159.798 70.9674 159.866 71.2459C159.979 71.7088 160.145 72.1488 160.392 72.5573C160.734 73.1272 160.818 73.7121 160.697 74.3854C160.613 74.8526 160.79 75.3576 160.93 75.8304C161.179 76.6777 161.438 77.5212 161.69 78.3678C161.843 78.8821 162.055 79.3704 162.295 79.85C162.857 80.9745 162.519 81.5463 161.254 81.6323C161.215 81.6348 161.174 81.6138 161.135 81.6038C160.687 81.5376 160.264 81.3761 159.844 81.2214C159.347 81.0382 159.154 80.6019 159.05 80.118C158.836 79.1222 158.33 78.2849 157.659 77.5348C157.318 77.1536 156.908 76.9122 156.408 76.7884C155.317 76.5186 154.303 76.0848 153.422 75.3589C152.694 74.7592 152.258 74.0561 152.298 73.0734C152.332 72.2726 152.347 71.4674 152.18 70.6703C152.06 70.1016 151.792 69.6145 151.228 69.479C150.039 69.1937 149.049 68.5253 147.998 67.9646C146.965 67.4138 146.645 67.5011 145.878 68.3941C145.663 68.6448 145.422 68.8707 145.185 69.0996C144.411 69.8485 142.858 69.7829 142.507 68.3514C142.354 67.7282 142.218 67.0958 142.196 66.4633C142.158 65.379 141.836 64.4049 141.322 63.4686C140.903 62.7074 140.818 61.9214 141.172 61.0921C141.772 59.6823 143.09 59.2826 144.342 60.1651C144.781 60.4739 145.201 60.8087 145.718 60.9838C146.45 61.2314 146.994 60.8211 146.969 60.0419C146.937 58.9898 146.154 58.1302 145.081 58.1333C143.879 58.1377 142.893 57.7589 141.989 56.968C141.002 56.1053 139.333 56.1808 138.346 57.041C137.926 57.4068 137.54 57.809 137.161 58.2169C136.569 58.8543 136.421 59.5765 136.795 60.3823C137.02 60.8687 137.272 61.3421 137.51 61.8224C137.666 62.1374 137.787 62.4629 137.883 62.8027C138.199 63.9216 137.833 64.7843 136.918 65.4465C136.467 65.7726 135.996 66.0715 135.533 66.3797C135.171 66.6211 134.836 66.8903 134.568 67.2393C133.558 68.5507 132.206 69.3416 130.63 69.7538C129.198 70.1282 128.179 69.6319 127.562 68.2982C127.318 67.7722 126.89 67.412 126.489 67.0345C125.689 66.2813 125.38 65.3902 125.549 64.3016C125.693 63.3702 125.431 62.4728 125.032 61.6646C124.39 60.3637 124.735 59.2764 125.529 58.2193C125.801 57.8567 126.088 57.5008 126.237 57.0639C126.515 56.2495 126.172 55.7284 125.315 55.6554C125.106 55.6374 124.901 55.6634 124.703 55.7222C123.381 56.1133 122.314 56.7768 121.812 58.1698C121.359 59.4292 120.93 60.6985 120.362 61.9171C119.8 63.1251 118.913 63.9358 117.683 64.4247C116.688 64.8202 115.697 65.2274 114.835 65.8951C114.302 66.3073 113.929 66.8024 113.833 67.4677C113.702 68.3675 113.18 68.9567 112.409 69.367C110.869 70.1876 109.689 71.356 108.959 72.9546C108.743 73.428 108.405 73.7814 107.922 73.9627C107.21 74.2319 106.521 74.524 106.055 75.1682Z" fill="#1D1C1A"/>
<path d="M106.055 75.1689C106.215 74.5389 106.664 74.2276 107.254 74.0543C107.53 73.9732 107.801 73.868 108.058 73.7424C108.4 73.5759 108.653 73.3209 108.802 72.9533C109.448 71.3579 110.623 70.2353 112.064 69.3583C112.31 69.2086 112.571 69.0829 112.81 68.922C113.274 68.6089 113.583 68.1949 113.634 67.6107C113.698 66.8668 114.086 66.3048 114.651 65.8401C115.215 65.3778 115.849 65.0424 116.509 64.749C116.979 64.5405 117.449 64.3313 117.927 64.1419C118.701 63.8356 119.299 63.3244 119.763 62.6412C120.276 61.8837 120.6 61.0389 120.911 60.188C121.228 59.3185 121.487 58.4242 121.902 57.5962C122.587 56.2309 123.804 55.6702 125.248 55.505C125.423 55.4846 125.617 55.5434 125.791 55.5985C126.407 55.7922 126.614 56.1375 126.498 56.7724C126.394 57.3387 126.078 57.7967 125.719 58.2249C125.3 58.7231 125.009 59.2795 124.866 59.9163C124.777 60.313 124.81 60.6818 124.978 61.0581C125.28 61.7345 125.547 62.4245 125.67 63.1635C125.738 63.575 125.762 63.9822 125.699 64.3932C125.538 65.436 125.867 66.3005 126.641 67.0029C126.84 67.183 127.045 67.3551 127.25 67.5277C127.46 67.7047 127.601 67.9213 127.7 68.1794C128.165 69.388 129.012 69.9067 130.259 69.6653C131.933 69.3416 133.337 68.5229 134.399 67.1719C134.685 66.8067 135.025 66.5202 135.403 66.2683C135.866 65.9608 136.35 65.681 136.795 65.3506C137.819 64.5918 138.05 63.8127 137.665 62.5892C137.497 62.0539 137.214 61.5755 136.95 61.0872C136.127 59.566 136.218 58.8902 137.434 57.6902C137.786 57.343 138.152 57.0101 138.526 56.687C139.003 56.2743 139.563 56.1251 140.191 56.1845C141.052 56.2656 141.831 56.4878 142.474 57.1326C143.033 57.6927 143.765 57.9192 144.553 57.9464C144.718 57.952 144.883 57.9452 145.048 57.9495C146.266 57.9829 147.182 58.9484 147.141 60.1576C147.113 60.9944 146.588 61.388 145.777 61.1806C145.244 61.0445 144.809 60.7301 144.391 60.3953C144.062 60.1323 143.71 59.9268 143.29 59.8717C142.6 59.7808 142.025 59.9887 141.627 60.5797C141.073 61.404 140.848 62.3008 141.38 63.1944C142.112 64.4229 142.338 65.7627 142.442 67.1471C142.473 67.5593 142.562 67.9616 142.677 68.357C142.967 69.346 143.986 69.7278 144.871 69.1758C145.118 69.0217 145.322 68.8187 145.504 68.5922C145.672 68.3836 145.834 68.1701 146.008 67.9659C146.48 67.4126 146.836 67.3229 147.539 67.563C148.111 67.7586 148.614 68.0822 149.101 68.4251C149.547 68.7382 150.033 68.9437 150.554 69.0842C150.812 69.1535 151.071 69.2265 151.317 69.3274C151.896 69.5644 152.236 70.0063 152.345 70.6196C152.442 71.1704 152.441 71.7267 152.422 72.2843C152.361 74.1694 152.654 74.7177 154.238 75.7512C154.886 76.1739 155.598 76.4425 156.343 76.604C157.116 76.7717 157.695 77.1796 158.132 77.8201C158.622 78.538 159.068 79.2757 159.211 80.1532C159.314 80.7845 159.691 81.1366 160.318 81.2177C160.635 81.2585 160.922 81.3458 161.132 81.6039C160.764 81.9987 160.309 82.2097 159.773 82.2407C159.227 82.2722 158.731 82.0798 158.585 81.5494C158.297 80.5004 157.467 80.0709 156.621 79.634C156.034 79.332 155.467 78.9978 154.893 78.6741C153.714 78.0089 152.892 77.0447 152.369 75.8082C151.942 74.7994 151.412 73.8482 150.764 72.9626C150.471 72.561 150.139 72.194 149.742 71.8938C148.775 71.1617 147.89 71.4216 147.452 72.5616C147.393 72.7151 147.354 72.876 147.306 73.0332C147.18 73.4484 146.906 73.7535 146.552 73.98C146.19 74.2121 145.947 74.1187 145.787 73.709C145.652 73.3643 145.54 73.0109 145.4 72.668C145.339 72.5177 145.254 72.3691 145.149 72.246C145.012 72.0869 144.766 72.1302 144.701 72.3252C144.657 72.4564 144.667 72.6086 144.667 72.7516C144.664 73.5809 144.767 74.3965 145.031 75.185C145.172 75.6046 145.249 76.0384 145.15 76.4629C144.962 77.2712 145.081 78.0664 145.202 78.8579C145.336 79.7324 145.522 80.5988 145.7 81.4658C145.906 82.4727 146.365 83.3645 146.969 84.1876C147.176 84.4698 147.395 84.7452 147.578 85.0429C147.73 85.2898 147.644 85.4414 147.363 85.4408C146.62 85.4384 145.881 85.3666 145.145 85.2719C144.884 85.2385 144.714 85.041 144.566 84.8387C144.407 84.6202 144.304 84.3714 144.228 84.114C144.118 83.742 143.968 83.4159 143.536 83.3305C143.33 83.2903 143.29 83.1281 143.287 82.9561C143.283 82.7092 143.288 82.4616 143.298 82.2147C143.363 80.6267 143.181 79.0609 142.447 77.6481C141.954 76.7 141.659 75.7178 141.409 74.6985C141.198 73.834 140.83 73.0251 140.369 72.2645C139.646 71.0683 139.147 69.7953 138.972 68.4022C138.964 68.3409 138.953 68.2797 138.936 68.2209C138.85 67.9318 138.715 67.8916 138.513 68.1119C138.251 68.3966 138.124 68.7296 138.154 69.1275C138.211 69.9147 138.381 70.6747 138.657 71.4117C138.903 72.0671 139.16 72.7182 139.405 73.3735C139.475 73.5623 139.601 73.8092 139.395 73.938C139.194 74.0636 139.021 73.8433 138.866 73.7145C138.566 73.4633 138.268 73.2089 137.98 72.944C137.597 72.5919 137.146 72.4335 136.632 72.4131C135.642 72.3741 134.654 72.4291 133.667 72.4861C132.042 72.5802 130.415 72.6656 128.793 72.7943C127.394 72.9051 126.045 72.6173 124.688 72.3765C124.161 72.2831 123.633 72.1915 123.11 72.0801C122.805 72.0151 122.583 72.0752 122.468 72.3852C122.144 73.2634 121.502 73.8556 120.712 74.3037C120.432 74.4627 120.354 74.6738 120.414 74.9715C120.442 75.1119 120.448 75.258 120.454 75.4016C120.461 75.5594 120.4 75.69 120.243 75.7407C120.092 75.789 119.948 75.7413 119.858 75.6138C119.765 75.4808 119.695 75.3304 119.618 75.1856C119.398 74.7672 119.167 74.667 118.65 74.7672C118.228 74.8489 118.139 74.9541 118.084 75.4362C118.079 75.4771 118.078 75.5185 118.075 75.5594C118.056 75.8255 117.989 76.0644 117.661 76.0644C117.369 76.0644 117.308 75.8403 117.254 75.607C117.1 74.9424 116.897 74.7598 116.341 74.7641C115.934 74.7672 115.801 74.8644 115.673 75.2623C115.647 75.3403 115.626 75.4208 115.615 75.5018C115.585 75.7221 115.464 75.8379 115.242 75.8218C115.032 75.8063 114.901 75.6869 114.867 75.4765C114.85 75.375 114.838 75.2716 114.836 75.1689C114.828 74.701 114.618 74.404 114.154 74.2647C113.822 74.1645 113.491 74.0382 113.195 73.8457C112.781 73.5759 112.734 73.4026 112.987 72.9905C113.778 71.7045 114.782 70.6511 116.129 69.9165C117.189 69.3379 118.319 69.2494 119.479 69.2482C119.685 69.2482 119.893 69.2748 120.09 69.2042C120.36 69.1077 120.413 68.883 120.211 68.6801C120 68.4672 119.721 68.3892 119.435 68.3304C118.246 68.0859 117.099 68.2796 115.976 68.6794C115.215 68.9511 114.508 69.3348 113.877 69.8417C112.499 70.9488 111.325 72.2361 110.468 73.795C110.339 74.0295 110.227 74.2814 110.056 74.4832C109.119 75.5965 108.731 76.9308 108.481 78.322C108.239 79.6643 108.095 81.0091 108.255 82.3793C108.337 83.0811 108.575 83.6925 109.007 84.2402C109.236 84.5311 109.47 84.8189 109.686 85.1203C109.834 85.327 109.749 85.4879 109.512 85.5176C108.9 85.5949 108.284 85.6921 107.669 85.6995C106.992 85.7076 106.317 84.942 106.338 84.2594C106.348 83.9209 106.373 83.5991 105.985 83.4227C105.789 83.333 105.782 83.125 105.802 82.9357C105.845 82.5055 105.894 82.0754 105.947 81.6466C106.144 80.0468 106.166 78.4433 106.081 76.8355C106.055 76.2822 106.064 75.7252 106.055 75.1689Z" fill="white"/>
<path d="M133.428 75.842C133.452 75.3611 133.489 74.7856 133.451 74.2094C133.435 73.9712 133.515 73.8208 133.778 73.7812C134.572 73.6599 135.365 73.5683 136.173 73.6432C136.616 73.684 136.941 73.9012 137.243 74.1946C137.384 74.3313 137.404 74.4619 137.298 74.6296C136.963 75.1588 136.832 75.7683 136.636 76.3507C136.536 76.6447 136.447 76.9473 136.226 77.1713C135.864 77.5389 135.695 77.9963 135.569 78.4765C135.329 79.39 135.056 80.2929 134.982 81.2459C134.906 82.2151 135.139 83.0784 135.691 83.8662C135.762 83.9671 135.837 84.0655 135.905 84.1682C135.995 84.3025 136.137 84.4424 136.028 84.6101C135.941 84.7456 135.765 84.6906 135.626 84.6899C135.194 84.6881 134.761 84.6881 134.329 84.6738C133.524 84.6472 133.073 84.2635 132.916 83.4869C132.847 83.1502 132.849 82.7783 132.394 82.6786C132.261 82.6495 132.243 82.4911 132.262 82.3661C132.28 82.2454 132.312 82.1235 132.36 82.0115C133.152 80.127 133.581 78.177 133.429 76.1211C133.424 76.0604 133.428 75.9979 133.428 75.842Z" fill="white"/>
<path d="M113.784 75.5337C114.167 75.611 114.337 75.8604 114.485 76.1346C114.592 76.3351 114.701 76.5325 114.928 76.6278C115.295 76.7813 115.572 76.7108 115.913 76.371C116.273 76.0127 116.608 76.017 116.868 76.4403C117.059 76.751 117.28 76.9509 117.652 76.9317C117.918 76.9181 117.952 77.0592 117.939 77.2783C117.853 78.7289 118.253 80.0879 118.739 81.429C119.119 82.478 119.819 83.3135 120.553 84.1254C120.688 84.2739 120.938 84.3983 120.853 84.6205C120.768 84.839 120.497 84.7765 120.298 84.7919C119.847 84.8272 119.395 84.86 118.943 84.8792C118.054 84.9176 117.505 84.472 117.38 83.5913C117.33 83.2435 117.257 82.9879 116.857 82.8635C116.518 82.7577 116.531 82.3629 116.483 82.0695C116.364 81.3362 116.19 80.6152 115.951 79.9153C115.516 78.6422 114.972 77.4274 113.954 76.4874C113.663 76.2181 113.673 76.1761 113.784 75.5337Z" fill="white"/>
<path d="M65.8407 127.602C64.4965 129.944 62.4468 131.401 59.9051 132.137C55.1405 133.517 50.7855 132.625 46.8557 129.605C44.7664 127.999 43.0045 126.068 41.3039 124.074C39.9795 122.522 38.7077 120.925 37.2961 119.449C36.4247 118.538 35.5038 117.684 34.4103 117.04C34.1485 116.886 33.8948 116.706 33.5928 116.645C33.4412 116.803 33.5074 116.975 33.5068 117.128C33.5018 119.313 33.5049 121.498 33.5024 123.683C33.5018 124.182 33.4956 124.19 32.9894 124.191C31.2788 124.195 29.5677 124.194 27.8571 124.192C27.3224 124.191 27.3175 124.186 27.3168 123.652C27.315 120.808 27.3162 117.963 27.3162 115.118C27.3162 109.739 27.3156 104.358 27.3168 98.9784C27.3168 98.047 27.2302 97.128 26.9746 96.2288C26.7828 95.5536 26.4832 94.9323 26.0339 94.3747C26.2165 94.2453 26.3842 94.2985 26.5371 94.2985C28.6598 94.2942 30.7831 94.2954 32.9058 94.2954C33.5717 94.2954 33.503 94.2614 33.503 94.8964C33.5037 100.482 33.503 106.069 33.5061 111.655C33.5061 111.877 33.456 112.107 33.5717 112.348C34.2092 112.325 34.8212 112.158 35.4098 111.923C38.4162 110.72 40.5631 108.579 42.0422 105.742C42.9166 104.065 43.3381 102.276 43.1759 100.374C43.1376 99.9259 43.0571 99.4809 42.9952 99.0248C43.0862 98.8726 43.2459 98.9277 43.3802 98.927C45.4824 98.9233 47.5847 98.9227 49.687 98.9258C50.1871 98.9264 50.1902 98.9338 50.1277 99.4481C49.9247 101.104 49.3596 102.647 48.6343 104.134C47.1101 107.257 45.0239 109.929 42.2247 112.018C40.7908 113.088 39.2177 113.879 37.4898 114.355C37.3443 114.529 37.5579 114.514 37.6092 114.584C39.4757 114.975 41.0322 115.95 42.4599 117.165C43.9848 118.463 45.3283 119.943 46.6905 121.403C47.8143 122.608 48.9407 123.81 50.166 124.913C50.947 125.617 51.7652 126.273 52.6359 126.863C56.1239 129.228 59.8513 129.675 63.8077 128.26C64.4841 128.018 65.1426 127.727 65.8091 127.458C65.8432 127.484 65.8593 127.514 65.8574 127.548C65.8555 127.584 65.85 127.602 65.8407 127.602Z" fill="white"/>
<path d="M128.444 126.594C128.458 126.804 128.341 126.909 128.279 127.035C127.531 128.561 127.799 130.269 128.981 131.491C129.627 132.159 130.411 132.609 131.294 132.863C132.451 133.197 133.628 133.334 134.838 133.179C136.736 132.935 138.017 131.933 138.702 130.152C138.941 129.531 139.073 128.888 139.153 128.232C139.237 127.552 139.251 123.38 139.185 122.671C139.004 122.598 138.931 122.763 138.831 122.845C137.307 124.098 135.549 124.696 133.589 124.747C132.472 124.775 131.363 124.703 130.273 124.444C127.194 123.712 125.302 121.76 124.453 118.75C123.938 116.924 123.872 115.054 123.916 113.172C123.96 111.268 124.319 109.406 124.626 107.536C124.692 107.131 124.731 106.718 124.747 106.307C124.777 105.6 124.539 104.972 124.115 104.412C123.967 104.217 123.809 104.03 123.612 103.785C126.274 103.785 128.874 103.785 131.493 103.785C131.567 104.15 131.411 104.482 131.338 104.813C130.823 107.147 130.334 109.485 130.081 111.865C129.878 113.778 129.791 115.689 130.255 117.582C130.408 118.206 130.639 118.798 130.988 119.34C131.633 120.341 132.556 120.904 133.732 121.025C135.618 121.218 137.309 120.664 138.883 119.652C139.234 119.427 139.223 119.133 139.223 118.799C139.221 114.242 139.222 109.686 139.222 105.13C139.222 104.82 139.217 104.511 139.223 104.202C139.232 103.758 139.236 103.747 139.667 103.746C141.44 103.741 143.213 103.741 144.986 103.746C145.421 103.747 145.421 103.759 145.435 104.199C145.438 104.301 145.436 104.405 145.436 104.508C145.436 111.312 145.441 118.116 145.431 124.92C145.429 126.549 145.327 128.17 144.895 129.758C143.828 133.687 141.238 135.959 137.295 136.717C134.962 137.166 132.621 137.17 130.32 136.479C128.725 136 127.329 135.192 126.318 133.831C125.202 132.328 124.883 130.667 125.428 128.862C125.623 128.217 125.974 127.662 126.485 127.22C127.037 126.743 127.667 126.485 128.444 126.594Z" fill="white"/>
<path d="M87.6195 116.997C89.3808 119.184 91.233 121.041 93.9864 121.687C94.3911 121.783 94.802 121.822 95.2117 121.833C95.6202 121.843 96.0299 121.785 96.4358 121.756C96.5615 121.918 96.447 122.037 96.3888 122.154C95.8349 123.272 94.9091 123.965 93.7611 124.363C91.8865 125.012 90.0256 124.847 88.1987 124.155C86.4981 123.511 85.1291 122.407 83.9799 121.019C82.8783 119.689 82.0719 118.188 81.4673 116.575C81.3076 116.149 81.3157 116.144 81.7545 116.068C83.4458 115.776 85.0945 115.348 86.6256 114.543C87.4524 114.109 88.2105 113.581 88.843 112.887C89.2923 112.394 89.6438 111.841 89.8616 111.208C90.4285 109.558 89.9043 108.006 88.4475 107.054C87.3849 106.359 86.1855 106.063 84.9447 105.957C83.439 105.828 81.9383 105.898 80.4616 106.266C79.9047 106.405 79.9016 106.401 79.9016 106.995C79.9009 112.459 79.9034 117.923 79.8991 123.387C79.8985 124.282 80.0495 124.188 79.0661 124.191C77.4583 124.196 75.8498 124.195 74.242 124.191C73.724 124.191 73.716 124.185 73.716 123.7C73.7141 117.267 73.7141 110.834 73.716 104.401C73.716 103.9 73.7228 103.899 74.2179 103.837C78.2739 103.333 82.343 103.076 86.4312 103.199C88.3955 103.258 90.3313 103.509 92.1904 104.192C92.7146 104.385 93.206 104.641 93.6862 104.924C96.6141 106.649 97.0683 110.602 95.2983 112.968C94.6077 113.892 93.7592 114.626 92.782 115.222C91.3011 116.123 89.6871 116.654 87.984 116.934C87.9035 116.947 87.8243 116.961 87.6195 116.997Z" fill="white"/>
<path d="M112.93 116.977C112.9 117.086 112.944 117.157 112.995 117.222C114.086 118.609 115.309 119.853 116.842 120.756C118.228 121.573 119.708 121.995 121.332 121.772C121.449 121.756 121.574 121.717 121.712 121.81C121.481 122.536 121.021 123.102 120.426 123.562C119.467 124.305 118.361 124.663 117.163 124.736C114.863 124.877 112.81 124.206 111 122.797C108.798 121.083 107.453 118.787 106.51 116.169C107.275 116.006 107.997 115.87 108.708 115.696C109.994 115.383 111.225 114.923 112.363 114.234C113.109 113.782 113.778 113.24 114.316 112.547C114.753 111.986 115.063 111.368 115.195 110.663C115.468 109.194 114.985 108.026 113.784 107.16C112.715 106.39 111.475 106.081 110.193 105.964C108.667 105.824 107.146 105.893 105.65 106.268C105.101 106.406 105.097 106.404 105.096 106.948C105.093 107.834 105.095 108.72 105.095 109.606C105.095 114.244 105.095 118.882 105.095 123.52C105.095 124.251 105.139 124.192 104.432 124.192C102.762 124.193 101.093 124.195 99.4234 124.191C98.9178 124.19 98.9091 124.182 98.9091 123.678C98.9073 117.247 98.9073 110.816 98.9091 104.385C98.9091 103.908 98.9227 103.896 99.3726 103.84C103.591 103.315 107.825 103.044 112.076 103.217C113.996 103.295 115.892 103.57 117.686 104.315C119.011 104.866 120.152 105.657 120.844 106.958C121.886 108.919 121.873 111.655 119.883 113.697C118.585 115.031 117.005 115.877 115.256 116.443C114.493 116.69 113.709 116.845 112.93 116.977Z" fill="white"/>
<path d="M71.1337 109.536C69.1564 107.89 66.9514 107.034 64.5644 106.609C62.9219 106.316 61.2819 106.322 59.6661 106.788C56.9771 107.564 55.5407 109.43 55.0611 112.117C55.0512 112.174 55.0741 112.237 55.0871 112.34C59.3925 112.34 63.6955 112.34 68.0827 112.34C67.8326 113.124 67.4576 113.736 66.8691 114.215C66.1592 114.792 65.3225 115.068 64.4345 115.19C63.8843 115.265 63.3292 115.309 62.7703 115.308C60.4205 115.301 58.0706 115.303 55.7208 115.308C55.4992 115.308 55.2696 115.253 55.0048 115.386C55.2932 117.621 56.2134 119.455 58.2773 120.58C59.4253 121.205 60.6761 121.471 61.9627 121.487C65.2798 121.527 68.3042 120.627 70.9282 118.536C70.9715 118.502 71.0334 118.491 71.1126 118.458C71.0427 119.216 70.7735 119.877 70.3898 120.495C69.5141 121.905 68.2659 122.887 66.7892 123.6C65.4556 124.244 64.0365 124.592 62.5692 124.702C60.1587 124.883 57.7915 124.653 55.5314 123.733C52.5008 122.499 50.237 120.47 49.1961 117.303C47.691 112.723 49.1961 107.259 54.6211 104.588C56.9493 103.443 59.4321 103.066 62.006 103.186C64.1869 103.289 66.2366 103.822 68.0672 105.052C69.1985 105.812 70.1156 106.771 70.7085 108.015C70.922 108.465 71.0582 108.935 71.1337 109.536Z" fill="white"/>
<path d="M198.647 94.2951C199.61 94.2951 200.451 94.2951 201.293 94.2951C202.777 94.2951 204.261 94.3019 205.745 94.2896C206.051 94.2871 206.225 94.3508 206.177 94.6962C206.163 94.797 206.175 94.9022 206.175 95.005C206.175 104.487 206.176 113.97 206.175 123.452C206.175 124.259 206.253 124.191 205.455 124.192C203.847 124.193 202.239 124.193 200.631 124.192C199.995 124.191 199.993 124.189 199.993 123.558C199.992 118.611 199.992 113.664 199.992 108.717C199.992 105.501 199.994 102.285 199.991 99.0691C199.99 98.202 199.935 97.3406 199.722 96.4946C199.53 95.7297 199.231 95.0155 198.647 94.2951Z" fill="white"/>
<path d="M172.137 103.743C171.813 103.743 171.611 103.743 171.41 103.743C168.195 103.743 164.98 103.747 161.765 103.741C160.837 103.739 159.91 103.754 158.986 103.831C157.105 103.988 155.279 104.381 153.566 105.196C150.955 106.437 149.138 108.375 148.385 111.215C147.966 112.794 147.946 114.398 148.213 115.998C148.681 118.813 150.043 121.092 152.411 122.722C154.314 124.032 156.46 124.604 158.744 124.737C160.769 124.854 162.684 124.517 164.417 123.401C164.466 123.37 164.533 123.359 164.64 123.451C164.606 124.903 164.697 126.401 164.578 127.898C164.524 128.578 164.41 129.245 164.191 129.893C163.542 131.815 162.242 132.932 160.203 133.182C159.014 133.328 157.859 133.194 156.721 132.872C155.921 132.645 155.199 132.251 154.578 131.686C153.227 130.455 152.884 128.649 153.69 127.01C153.751 126.885 153.867 126.779 153.837 126.592C153.195 126.491 152.624 126.673 152.106 127.045C151.444 127.52 151.02 128.17 150.799 128.943C150.209 131.011 150.744 132.811 152.168 134.366C153.139 135.428 154.368 136.091 155.738 136.482C158.357 137.231 160.99 137.183 163.609 136.495C167.05 135.591 169.238 133.385 170.231 129.981C170.656 128.526 170.819 127.033 170.821 125.524C170.827 119.753 170.825 113.982 170.823 108.211C170.821 106.636 171.094 105.14 172.137 103.743ZM164.123 120.512C162.416 121.299 160.656 121.544 158.828 121.058C156.793 120.517 155.456 119.191 154.805 117.221C154.078 115.026 154.083 112.794 154.825 110.601C155.642 108.189 157.39 106.852 159.872 106.412C160.876 106.233 161.887 106.318 162.895 106.297C163.348 106.288 163.802 106.31 164.255 106.29C164.555 106.277 164.647 106.39 164.642 106.683C164.628 107.652 164.637 108.621 164.637 109.59C164.637 110.827 164.637 112.064 164.637 113.301C164.637 115.424 164.624 117.547 164.648 119.671C164.653 120.108 164.511 120.334 164.123 120.512Z" fill="white"/>
<path d="M232.008 110.02C231.558 107.216 230.286 104.801 228.475 102.645C227.573 101.57 226.568 100.591 225.631 99.5491C225.286 99.1654 224.952 98.7743 224.676 98.3368C223.856 97.0378 224.023 95.7567 225.148 94.722C225.277 94.6037 225.405 94.4849 225.548 94.3531C225.465 94.3234 225.429 94.2993 225.393 94.2993C223.518 94.2974 221.641 94.2776 219.766 94.3055C218.84 94.3191 218.115 94.7684 217.602 95.5438C217.204 96.1447 217.021 96.8156 217.005 97.5285C216.97 99.015 217.52 100.302 218.387 101.476C218.829 102.075 219.371 102.58 220.029 103.165C218.657 103.253 217.446 103.455 216.27 103.834C211.464 105.385 208.696 109.381 208.799 114.094C208.893 118.353 210.833 121.484 214.63 123.419C216.635 124.441 218.799 124.809 221.039 124.746C225.174 124.63 228.349 122.82 230.481 119.273C232.205 116.403 232.53 113.271 232.008 110.02ZM225.637 118.304C224.879 119.918 223.712 121.088 221.914 121.449C219.718 121.891 217.759 121.154 216.49 119.35C215.777 118.335 215.402 117.19 215.205 115.976C214.962 114.475 214.947 112.975 215.309 111.496C216.11 108.221 218.23 106.268 221.49 105.584C223.158 105.233 222.834 105.211 223.887 106.432C225.4 108.187 226.192 110.257 226.405 112.556C226.449 113.028 226.481 113.5 226.506 113.822C226.456 115.466 226.279 116.934 225.637 118.304Z" fill="white"/>
<path d="M197.335 113.157C197.044 109.129 195.029 106.239 191.433 104.453C189.554 103.521 187.536 103.16 185.278 103.17C184.204 103.148 182.98 103.287 181.774 103.587C177.188 104.73 174.031 108.076 173.513 112.578C172.952 117.443 175.269 121.804 179.966 123.736C182.798 124.9 185.731 125.029 188.703 124.404C190.931 123.934 192.903 122.946 194.496 121.297C196.689 119.028 197.56 116.27 197.335 113.157ZM190.394 118.153C190.121 118.849 189.744 119.479 189.262 120.053C187.28 122.413 183.451 122.385 181.494 119.996C180.608 118.913 180.142 117.655 179.881 116.304C179.732 115.534 179.702 114.751 179.679 114.115C179.696 112.242 179.929 110.556 180.765 109.015C181.617 107.443 182.877 106.405 184.703 106.166C187.077 105.855 188.959 107.043 189.992 108.917C190.628 110.071 190.94 111.323 191.06 112.626C191.235 114.517 191.094 116.369 190.394 118.153Z" fill="white"/>
<path fill-rule="evenodd" clip-rule="evenodd" d="M38.4461 67.3764L34.775 61.7311L35.983 60.9526L39.5496 62.3816V58.6294L40.6883 57.8743L44.3934 63.5085L43.0697 64.3793L40.8102 60.8542L40.7867 63.7462L40.2118 64.1243L37.4411 63.0202L39.7761 66.5113L38.4461 67.3764Z" fill="#0C7949"/>
<path fill-rule="evenodd" clip-rule="evenodd" d="M84.8655 46.8602L83.4236 40.2822L84.8284 39.9802L87.661 42.5758L88.9853 39.0649L90.3165 38.7604L91.7956 45.3396L90.2491 45.6874L89.3796 41.5911L88.3368 44.2894L87.6659 44.4398L85.4627 42.4297L86.4158 46.5198L84.8655 46.8602Z" fill="#0C7949"/>
<path fill-rule="evenodd" clip-rule="evenodd" d="M43.1246 56.4405L44.5357 55.6737L47.8899 61.5108L46.5222 62.295L43.1246 56.4405Z" fill="#0C7949"/>
<path fill-rule="evenodd" clip-rule="evenodd" d="M96.3779 37.5279L97.9684 37.3051L99.0619 43.948L97.5061 44.2024L96.3779 37.5279Z" fill="#0C7949"/>
<path fill-rule="evenodd" clip-rule="evenodd" d="M108.12 35.9531L109.72 35.8225L110.429 42.5174L108.861 42.682L108.12 35.9531Z" fill="#0C7949"/>
<path fill-rule="evenodd" clip-rule="evenodd" d="M47.0803 54.2348L48.5093 53.5027L51.0008 58.3818L53.092 57.2753L53.6842 58.3818L50.2427 60.2205L47.0803 54.2348Z" fill="#0C7949"/>
<path fill-rule="evenodd" clip-rule="evenodd" d="M52.3682 51.5085L53.8324 50.8377L54.9823 53.3379L55.7837 49.9137L57.4218 49.1736L56.3846 53.216L60.3577 55.2199L58.6676 56.0386L55.4353 54.2965L56.6724 56.962L55.2694 57.6155L52.3682 51.5085Z" fill="#0C7949"/>
<path fill-rule="evenodd" clip-rule="evenodd" d="M65.2195 53.2421L62.8059 46.8906L66.6478 45.453L66.7004 46.76L64.7529 47.5442L65.2368 48.9205L67.2141 48.1457L67.6671 49.2869L65.6985 50.0797L66.6652 52.6238L65.2195 53.2421Z" fill="#0C7949"/>
<path fill-rule="evenodd" clip-rule="evenodd" d="M171.524 46.7391L173.204 40.1556L177.174 41.1904L176.464 42.2895L174.421 41.8105L174.024 43.2147L176.088 43.7178L175.802 44.9123L173.736 44.4283L173.063 47.0653L171.524 46.7391Z" fill="#0C7949"/>
<path fill-rule="evenodd" clip-rule="evenodd" d="M72.0146 48.2332C72.1625 48.3811 74.0792 50.0279 74.0792 50.0279L75.7866 49.479L73.1787 47.3272C73.1787 47.3272 73.0624 47.2461 72.9466 47.2461C72.9466 47.2461 74.1138 46.1947 73.3941 44.9285C72.6737 43.6623 71.4366 43.9178 70.6871 44.0515L68.4772 44.7923L70.6463 51.1871L72.1446 50.6907L71.2992 48.3297L71.6736 48.1552C71.6749 48.1552 71.8667 48.0853 72.0146 48.2332ZM70.9694 47.2486L70.3746 45.525L70.8672 45.3289C70.8672 45.3289 71.7559 44.9278 72.0988 45.7874C72.4416 46.647 71.6922 46.9955 71.6922 46.9955L70.9694 47.2486Z" fill="#0C7949"/>
<path fill-rule="evenodd" clip-rule="evenodd" d="M141.885 39.7156C141.966 39.9087 143.115 42.1595 143.115 42.1595L144.903 42.2994L143.307 39.3189C143.307 39.3189 143.23 39.1995 143.123 39.1556C143.123 39.1556 144.602 38.6258 144.416 37.1808C144.229 35.7357 142.988 35.503 142.244 35.3421L139.918 35.1886L139.499 41.9287L141.074 42.0376L141.188 39.5325L141.601 39.5133C141.6 39.5139 141.804 39.5226 141.885 39.7156ZM141.291 38.408L141.395 36.5879L141.925 36.5935C141.925 36.5935 142.899 36.56 142.891 37.4852C142.881 38.4105 142.056 38.4488 142.056 38.4488L141.291 38.408Z" fill="#0C7949"/>
<path fill-rule="evenodd" clip-rule="evenodd" d="M103.473 40.915C103.591 41.0876 105.17 43.0606 105.17 43.0606L106.95 42.8372L104.785 40.2398C104.785 40.2398 104.686 40.1383 104.572 40.1166C104.572 40.1166 105.913 39.2997 105.44 37.9221C104.967 36.5445 103.703 36.5668 102.942 36.5594L100.633 36.8781L101.582 43.5637L103.147 43.3527L102.753 40.876L103.153 40.7739C103.153 40.7751 103.355 40.7423 103.473 40.915ZM102.628 39.754L102.362 37.9506L102.883 37.8491C102.883 37.8491 103.83 37.6195 104.008 38.528C104.186 39.4359 103.385 39.6401 103.385 39.6401L102.628 39.754Z" fill="#0C7949"/>
<path fill-rule="evenodd" clip-rule="evenodd" d="M116.544 36.8973L116.483 35.573C116.483 35.573 115.864 35.2592 114.836 35.2592C113.808 35.2592 112.438 35.9121 112.501 37.5069C112.58 39.4675 115.568 39.2843 115.577 40.3469C115.586 41.4101 113.513 41.0177 113.05 40.5474L112.554 41.7499C112.554 41.7499 113.501 42.2462 114.522 42.2462C115.543 42.2462 117.187 41.6533 117.224 40.2423C117.285 37.916 114.122 38.2211 114.131 37.0799C114.138 36.1479 115.944 36.4963 116.544 36.8973Z" fill="#0C7949"/>
<path fill-rule="evenodd" clip-rule="evenodd" d="M159.026 38.9873L159.265 37.6834C159.265 37.6834 158.733 37.2384 157.732 37.007C156.73 36.7755 155.248 37.1035 154.951 38.6717C154.585 40.5995 157.539 41.094 157.308 42.1312C157.077 43.169 155.145 42.3199 154.801 41.758L154.046 42.8175C154.046 42.8175 154.858 43.5143 155.852 43.7446C156.846 43.9748 158.582 43.7668 158.935 42.4004C159.518 40.1477 156.368 39.7331 156.634 38.6228C156.85 37.7156 158.531 38.4613 159.026 38.9873Z" fill="#0C7949"/>
<path fill-rule="evenodd" clip-rule="evenodd" d="M165.53 40.1768L165.837 38.8871C165.837 38.8871 165.329 38.4149 164.341 38.1308C163.353 37.8468 161.855 38.0956 161.476 39.6458C161.009 41.5513 163.932 42.2011 163.647 43.2254C163.362 44.2496 161.477 43.2996 161.163 42.7197L160.354 43.7378C160.354 43.7378 161.127 44.4767 162.108 44.7589C163.089 45.0411 164.833 44.9254 165.259 43.58C165.96 41.3613 162.836 40.7802 163.16 39.6861C163.424 38.7918 165.062 39.6254 165.53 40.1768Z" fill="#0C7949"/>
<path fill-rule="evenodd" clip-rule="evenodd" d="M222.515 63.7982L223.283 62.7183C223.283 62.7183 222.989 62.0901 222.18 61.4564C221.371 60.8227 219.889 60.4922 218.957 61.7869C217.811 63.378 220.275 65.0755 219.627 65.9178C218.979 66.7595 217.588 65.1733 217.515 64.5185L216.383 65.1591C216.383 65.1591 216.822 66.1338 217.626 66.7626C218.429 67.3913 220.089 67.9384 220.987 66.8504C222.469 65.057 219.792 63.3483 220.502 62.4552C221.082 61.7256 222.289 63.1125 222.515 63.7982Z" fill="#0C7949"/>
<path fill-rule="evenodd" clip-rule="evenodd" d="M80.6729 41.8136C79.2687 41.1223 77.4604 41.9417 77.4604 41.9417C76.5426 42.3947 75.5091 43.3181 75.5784 45.3306C75.639 47.082 77.2233 48.9708 79.7693 48.3625C82.212 47.7789 82.5592 45.8356 82.5474 45.5045C82.5468 45.5052 82.8445 42.8824 80.6729 41.8136ZM79.6357 47.152C78.1912 47.5505 77.2165 46.228 77.1206 45.0076C77.0172 43.6931 77.6349 43.2964 78.156 43C78.156 43 79.0849 42.5841 79.8479 43.0916C81.207 43.9957 80.9545 45.4612 80.9545 45.4612C80.9607 45.6784 81.0213 46.7695 79.6357 47.152Z" fill="#0C7949"/>
<path fill-rule="evenodd" clip-rule="evenodd" d="M208.388 54.1431C207.815 52.6863 205.926 52.0755 205.926 52.0755C204.943 51.7927 203.557 51.7797 202.253 53.3151C201.12 54.6512 201.019 57.1143 203.312 58.378C205.51 59.5904 207.076 58.3879 207.29 58.1348C207.289 58.1348 209.274 56.3958 208.388 54.1431ZM204.027 57.3928C202.691 56.7151 202.86 55.0813 203.611 54.114C204.419 53.0725 205.143 53.195 205.728 53.3262C205.728 53.3262 206.694 53.6437 206.917 54.533C207.314 56.1167 206.14 57.0301 206.14 57.0301C205.999 57.1954 205.309 58.0432 204.027 57.3928Z" fill="#0C7949"/>
<path fill-rule="evenodd" clip-rule="evenodd" d="M119.324 35.0815L120.883 35.0493L120.953 37.6721L123.932 37.5762L123.837 34.8927H125.39L125.605 41.6273H124.063L123.95 38.8745L121.014 38.9612L121.057 41.7665L119.524 41.8018L119.324 35.0815Z" fill="#0C7949"/>
<path fill-rule="evenodd" clip-rule="evenodd" d="M137.268 36.5879L137.349 35.2796C137.349 35.2796 133.748 33.9553 131.913 36.453C131.913 36.453 131.029 37.58 131.39 39.2293C131.729 40.782 132.862 41.6453 134.316 41.7852C135.769 41.9244 137.488 41.2041 137.488 41.2041L137.592 38.2886L136.013 38.2539L135.978 40.5134C134.811 40.9027 132.586 40.2343 133.051 37.7372C133.051 37.7365 133.516 35.1342 137.268 36.5879Z" fill="#0C7949"/>
<path fill-rule="evenodd" clip-rule="evenodd" d="M150.706 36.0689L149.487 35.9668L146.133 42.364L147.648 42.5163L148.432 41.018L150.601 41.2792L151.054 42.952L152.745 43.1351L150.706 36.0689ZM148.976 39.8459L149.856 38.0945L150.283 39.9851L148.976 39.8459Z" fill="#0C7949"/>
<path fill-rule="evenodd" clip-rule="evenodd" d="M167.518 41.704L170.178 42.308L169.899 43.4814L167.309 42.8774L167.518 41.704Z" fill="#0C7949"/>
<path fill-rule="evenodd" clip-rule="evenodd" d="M183.13 42.9236L182.375 44.027L180.354 43.4113L179.959 44.7938L181.98 45.3749L181.608 46.583L179.587 45.9672L179.134 47.4772L181.504 48.1858L181.132 49.3938L177.276 48.2093L179.239 41.7385L183.13 42.9236Z" fill="#0C7949"/>
<path fill-rule="evenodd" clip-rule="evenodd" d="M187.957 44.5996C186.764 44.1837 185.329 43.6497 185.329 43.6497L183.13 49.9862C183.63 50.1255 185.152 50.6948 185.152 50.6948C185.152 50.6948 188.648 52.112 189.949 49.1031C191.368 45.8237 187.957 44.5996 187.957 44.5996ZM188.422 48.488C187.591 50.4219 185.425 49.4868 185.425 49.4868C185.425 49.4868 185.298 49.4404 184.98 49.3519L186.377 45.3262C186.377 45.3262 186.441 45.3769 187.199 45.6412C187.199 45.6412 189.335 46.3634 188.422 48.488Z" fill="#0C7949"/>
<path fill-rule="evenodd" clip-rule="evenodd" d="M201.636 50.254L201.043 51.5319C200.457 50.5095 197.907 49.0633 196.757 51.6247C196.397 52.5079 196.403 54.8249 199.592 54.5984L199.557 55.7254C196.943 56.2656 194.236 54.2227 194.992 51.5437C196.045 47.8057 200.131 48.6511 201.636 50.254Z" fill="#0C7949"/>
<path fill-rule="evenodd" clip-rule="evenodd" d="M210.452 54.3077L211.997 55.2255L210.859 59.9883L213.611 57.5723L213.798 56.2825L215.157 57.1483L214.158 61.9167L217.677 58.5594L219.013 59.3725L213.6 64.0772L212.439 63.3686L213.182 59.6281L210.255 62.1141L209.162 61.4408L210.452 54.3077Z" fill="#0C7949"/>
<path d="M177.484 92.1547L168.743 90.1044C168.743 90.1044 168.736 90.1025 168.722 90.0988V90.092C168.673 90.0815 168.623 90.0716 168.573 90.061C168.321 89.9979 167.784 89.868 166.963 89.6928C167.523 89.1693 167.961 88.6816 168.086 87.9161C167.43 88.236 166.85 88.5355 166.124 88.5919C166.327 88.1716 166.527 87.8164 166.672 87.4401C166.818 87.0614 167.013 86.6808 166.969 86.1492C166.204 86.8584 165.587 87.5682 164.729 88.1692C164.796 86.6387 165.446 85.5043 166.436 84.3761C165.869 84.4789 165.517 84.6757 165.182 84.909C164.369 85.4752 163.929 86.3076 163.56 87.1926C163.505 87.3244 163.536 87.528 163.307 87.5614C163.002 86.6622 162.682 85.7785 161.763 85.1349C162.091 86.2055 162.398 87.174 162.202 88.3202C161.636 87.4971 161.094 86.8077 160.113 86.4079C160.213 86.6171 160.243 86.6913 160.282 86.7606C160.547 87.2347 160.701 87.7465 160.774 88.2799C160.792 88.413 160.797 88.5108 160.784 88.5795C154.387 87.5949 144.125 86.45 129.961 86.1832C104.033 85.6956 82.1707 91.6689 81.2994 91.9133C80.428 92.1571 80.3277 92.1441 80.2943 92.2822C80.2535 92.4505 80.6514 92.375 80.6514 92.375C83.0384 91.7215 106.977 89.0585 106.977 89.0585C131.043 87.3801 149.05 88.6983 158.267 89.6854V89.7021C158.415 89.7145 158.562 89.725 158.71 89.733C158.896 89.7535 159.079 89.7733 159.257 89.7937C159.298 89.811 159.339 89.8259 159.382 89.8308C160.832 90.0047 162.284 90.1625 163.733 90.3476C163.972 90.3779 164.211 90.4082 164.449 90.4392C164.557 90.4534 164.653 90.4652 164.736 90.4757C164.93 90.5004 165.124 90.5258 165.318 90.5506C168.916 91.0289 177.281 92.3954 177.281 92.3954C177.281 92.3954 177.693 92.5347 177.693 92.3694C177.693 92.2042 177.484 92.1547 177.484 92.1547Z" fill="url(#paint1_radial_113_218)"/>
<path d="M107.292 146.491C96.819 145.719 81.8109 143.837 66.6004 141.103C66.6004 141.103 65.9425 140.981 65.9165 140.985C65.8905 140.989 65.7773 140.994 65.812 141.103C65.8466 141.212 66.3739 141.181 67.9248 141.608C69.4756 142.035 95.4953 148.007 107.449 149.018C107.449 149.018 109.07 149.262 109.052 147.798C109.034 146.334 107.292 146.491 107.292 146.491Z" fill="url(#paint2_radial_113_218)"/>
<path d="M192.093 140.985C192.067 140.981 191.409 141.103 191.409 141.103C176.198 143.837 161.19 145.719 150.718 146.491C150.718 146.491 148.975 146.335 148.958 147.798C148.94 149.262 150.561 149.018 150.561 149.018C162.514 148.008 188.534 142.036 190.084 141.609C191.635 141.181 192.163 141.212 192.197 141.103C192.233 140.994 192.119 140.99 192.093 140.985Z" fill="url(#paint3_radial_113_218)"/>
<path d="M145.127 146.822C145.202 145.534 144.235 145.554 144.235 145.554C143.457 145.507 142.684 146.048 142.143 146.56C142.634 145.718 142.687 144.74 142.264 144.217C141.671 143.485 140.865 144.017 140.865 144.017C139.667 143.538 139.38 144.461 139.38 144.461C139.112 145.127 139.357 145.917 139.676 146.541C139.136 146.035 138.373 145.508 137.604 145.554C137.604 145.554 136.637 145.534 136.712 146.822C136.712 146.822 135.953 147.418 136.459 148.212C136.816 148.77 137.737 149.03 138.677 148.848C138.102 149.213 137.519 149.735 137.357 150.392C137.357 150.392 137.051 151.31 138.304 151.62C138.304 151.62 138.648 152.521 139.557 152.273C140.155 152.109 140.65 151.396 140.796 150.525C141.041 151.393 141.545 152.128 142.075 152.273C142.983 152.522 143.328 151.62 143.328 151.62C144.581 151.31 144.275 150.392 144.275 150.392C144.099 149.678 143.428 149.125 142.808 148.758C143.862 149.091 144.979 148.841 145.381 148.212C145.886 147.418 145.127 146.822 145.127 146.822ZM141.521 149.287C141.248 149.287 141.014 149.12 140.916 148.883C140.817 149.12 140.583 149.287 140.31 149.287C139.948 149.287 139.654 148.993 139.654 148.631C139.654 148.269 139.948 147.975 140.31 147.975C140.322 147.975 140.332 147.976 140.343 147.976C140.349 147.971 140.354 147.965 140.36 147.96C140.3 147.861 140.265 147.745 140.265 147.621C140.265 147.259 140.559 146.965 140.921 146.965C141.283 146.965 141.577 147.259 141.577 147.621C141.577 147.746 141.541 147.861 141.481 147.961C141.486 147.966 141.491 147.971 141.496 147.976C141.505 147.976 141.513 147.975 141.522 147.975C141.884 147.975 142.177 148.269 142.177 148.631C142.177 148.993 141.883 149.287 141.521 149.287Z" fill="url(#paint4_radial_113_218)"/>
<path d="M121.255 146.822C121.33 145.534 120.363 145.554 120.363 145.554C119.585 145.507 118.812 146.048 118.271 146.56C118.762 145.718 118.815 144.74 118.391 144.217C117.799 143.485 116.993 144.017 116.993 144.017C115.795 143.538 115.508 144.461 115.508 144.461C115.24 145.127 115.485 145.917 115.804 146.541C115.264 146.035 114.501 145.508 113.732 145.554C113.732 145.554 112.765 145.534 112.84 146.822C112.84 146.822 112.081 147.418 112.587 148.212C112.944 148.77 113.864 149.03 114.805 148.848C114.23 149.213 113.647 149.735 113.485 150.392C113.485 150.392 113.179 151.31 114.432 151.62C114.432 151.62 114.776 152.521 115.685 152.273C116.283 152.109 116.777 151.396 116.924 150.525C117.169 151.393 117.673 152.128 118.203 152.273C119.111 152.522 119.456 151.62 119.456 151.62C120.708 151.31 120.403 150.392 120.403 150.392C120.227 149.678 119.556 149.125 118.936 148.758C119.99 149.091 121.107 148.841 121.509 148.212C122.014 147.418 121.255 146.822 121.255 146.822ZM117.649 149.287C117.376 149.287 117.142 149.12 117.044 148.883C116.945 149.12 116.711 149.287 116.438 149.287C116.076 149.287 115.782 148.993 115.782 148.631C115.782 148.269 116.076 147.975 116.438 147.975C116.449 147.975 116.46 147.976 116.471 147.976C116.477 147.971 116.482 147.965 116.488 147.96C116.428 147.861 116.393 147.745 116.393 147.621C116.393 147.259 116.686 146.965 117.049 146.965C117.411 146.965 117.705 147.259 117.705 147.621C117.705 147.746 117.669 147.861 117.609 147.961C117.614 147.966 117.618 147.971 117.624 147.976C117.633 147.976 117.641 147.975 117.649 147.975C118.011 147.975 118.305 148.269 118.305 148.631C118.305 148.993 118.011 149.287 117.649 149.287Z" fill="url(#paint5_radial_113_218)"/>
<path d="M134.717 146.368C134.819 144.613 133.501 144.641 133.501 144.641C132.441 144.577 131.387 145.315 130.65 146.012C131.319 144.864 131.392 143.533 130.814 142.82C130.007 141.823 128.909 142.547 128.909 142.547C127.276 141.894 126.885 143.152 126.885 143.152C126.521 144.059 126.854 145.136 127.289 145.985C126.553 145.296 125.513 144.578 124.465 144.641C124.465 144.641 123.148 144.613 123.25 146.368C123.25 146.368 122.215 147.181 122.905 148.262C123.391 149.023 124.646 149.377 125.927 149.129C125.143 149.626 124.349 150.337 124.129 151.233C124.129 151.233 123.712 152.484 125.419 152.906C125.419 152.906 125.888 154.135 127.126 153.796C127.942 153.573 128.616 152.6 128.815 151.413C129.148 152.596 129.836 153.598 130.558 153.796C131.796 154.135 132.265 152.906 132.265 152.906C133.972 152.483 133.555 151.233 133.555 151.233C133.316 150.261 132.401 149.506 131.556 149.006C132.993 149.46 134.515 149.12 135.062 148.262C135.752 147.181 134.717 146.368 134.717 146.368ZM129.803 149.728C129.431 149.728 129.113 149.501 128.978 149.179C128.843 149.502 128.525 149.728 128.153 149.728C127.659 149.728 127.26 149.328 127.26 148.834C127.26 148.34 127.66 147.94 128.153 147.94C128.168 147.94 128.183 147.941 128.198 147.942C128.206 147.935 128.213 147.927 128.221 147.92C128.138 147.785 128.091 147.627 128.091 147.457C128.091 146.963 128.491 146.563 128.984 146.563C129.478 146.563 129.879 146.963 129.879 147.457C129.879 147.627 129.83 147.785 129.748 147.921C129.755 147.927 129.762 147.934 129.769 147.942C129.781 147.941 129.792 147.94 129.804 147.94C130.298 147.94 130.698 148.34 130.698 148.834C130.697 149.328 130.297 149.728 129.803 149.728Z" fill="url(#paint6_radial_113_218)"/>
<path d="M244.398 87.2034V87.9529H245.575V91.3944H246.481V87.9244H247.579L247.784 87.2034H244.398Z" fill="#0C7949"/>
<path d="M248.137 91.348H249.002V88.6646L250.129 90.2266H250.553L251.546 88.6646V91.348H252.359V87.2034H251.587L250.355 89.2222H250.248L248.926 87.2034H248.137V91.348Z" fill="#0C7949"/>
<defs>
<linearGradient id="paint0_linear_113_218" x1="1" y1="88.6732" x2="258" y2="88.6732" gradientUnits="userSpaceOnUse">
<stop stop-color="#D0BB76"/>
<stop offset="0.5" stop-color="#DDD89A"/>
<stop offset="1" stop-color="#DACD8D"/>
</linearGradient>
<radialGradient id="paint1_radial_113_218" cx="0" cy="0" r="1" gradientUnits="userSpaceOnUse" gradientTransform="translate(128.992 88.4133) scale(19.3618 19.3618)">
<stop stop-color="#FBF6B8"/>
<stop offset="0.6218" stop-color="#CBB87D"/>
</radialGradient>
<radialGradient id="paint2_radial_113_218" cx="0" cy="0" r="1" gradientUnits="userSpaceOnUse" gradientTransform="translate(125.535 147.902) scale(30.135 30.135)">
<stop stop-color="#F8F1B0"/>
<stop offset="1" stop-color="#C5B378"/>
</radialGradient>
<radialGradient id="paint3_radial_113_218" cx="0" cy="0" r="1" gradientUnits="userSpaceOnUse" gradientTransform="translate(125.536 147.903) scale(29.4249 29.425)">
<stop stop-color="#F8F1B0"/>
<stop offset="1" stop-color="#C5B378"/>
</radialGradient>
<radialGradient id="paint4_radial_113_218" cx="0" cy="0" r="1" gradientUnits="userSpaceOnUse" gradientTransform="translate(125.535 147.902) scale(29.4249 29.425)">
<stop stop-color="#F8F1B0"/>
<stop offset="1" stop-color="#C5B378"/>
</radialGradient>
<radialGradient id="paint5_radial_113_218" cx="0" cy="0" r="1" gradientUnits="userSpaceOnUse" gradientTransform="translate(125.535 147.902) scale(29.4249 29.425)">
<stop stop-color="#F8F1B0"/>
<stop offset="1" stop-color="#C5B378"/>
</radialGradient>
<radialGradient id="paint6_radial_113_218" cx="0" cy="0" r="1" gradientUnits="userSpaceOnUse" gradientTransform="translate(125.536 147.904) scale(29.4249 29.4249)">
<stop stop-color="#F8F1B0"/>
<stop offset="1" stop-color="#C5B378"/>
</radialGradient>
</defs>
</svg>
